<svg width="186" height="127" viewBox="0 0 186 127" fill="none" xmlns="http://www.w3.org/2000/svg">
<path d="M22.125 10.5938C19.7083 10.3646 17.5938 10.2188 15.7812 10.1562C13.9688 10.0729 12.4167 10.0312 11.125 10.0312C10.5417 10.0312 10.0417 10.0312 9.625 10.0312C9.22917 10.0312 8.85417 10.0521 8.5 10.0938V22.375C9.9375 22.3333 11.2292 22.2812 12.375 22.2188C13.5208 22.1354 14.4896 22.0417 15.2812 21.9375C16.2188 21.8333 17.0521 21.7188 17.7812 21.5938C17.7604 21.7396 17.75 21.9062 17.75 22.0938C17.7292 22.2604 17.7188 22.4583 17.7188 22.6875C17.7188 22.9167 17.7188 23.1771 17.7188 23.4688C17.7188 24.1354 17.7396 24.9375 17.7812 25.875C17.8229 26.7917 17.9062 27.7812 18.0312 28.8438C15.8229 28.5521 13.9167 28.375 12.3125 28.3125C10.7083 28.2292 9.45833 28.1875 8.5625 28.1875C8.60417 32.1667 8.67708 35.5417 8.78125 38.3125C8.90625 41.0625 9.03125 43.2917 9.15625 45C9.28125 47.0208 9.42708 48.6562 9.59375 49.9062C9.19792 49.8438 8.73958 49.7917 8.21875 49.75C7.69792 49.7292 7.14583 49.7188 6.5625 49.7188C5.83333 49.7188 5.09375 49.7292 4.34375 49.75C3.59375 49.7917 2.91667 49.8333 2.3125 49.875C1.60417 49.9375 0.916667 49.9896 0.25 50.0312C0.395833 48.6354 0.520833 47.2292 0.625 45.8125C0.75 44.3958 0.854167 43 0.9375 41.625C1.02083 40.25 1.09375 38.9271 1.15625 37.6562C1.21875 36.3854 1.27083 35.1875 1.3125 34.0625C1.39583 31.4375 1.44792 28.9271 1.46875 26.5312C1.44792 24.0312 1.39583 21.4688 1.3125 18.8438C1.27083 17.7188 1.21875 16.5417 1.15625 15.3125C1.09375 14.0625 1.02083 12.7917 0.9375 11.5C0.854167 10.2083 0.75 8.91667 0.625 7.625C0.520833 6.3125 0.395833 5.04167 0.25 3.8125C2.85417 3.91667 5.17708 4 7.21875 4.0625C9.28125 4.10417 11.1146 4.125 12.7188 4.125C14.3021 4.125 15.6667 4.11458 16.8125 4.09375C17.9583 4.05208 18.8958 4.01042 19.625 3.96875C20.4792 3.92708 21.1875 3.875 21.75 3.8125C21.75 3.79167 21.75 3.97917 21.75 4.375C21.75 4.77083 21.7604 5.29167 21.7812 5.9375C21.8021 6.58333 21.8333 7.3125 21.875 8.125C21.9375 8.9375 22.0208 9.76042 22.125 10.5938ZM36.45 5.15625C36.45 5.82292 36.325 6.45833 36.075 7.0625C35.825 7.64583 35.4813 8.15625 35.0438 8.59375C34.6063 9.03125 34.0854 9.38542 33.4813 9.65625C32.8979 9.90625 32.2729 10.0312 31.6063 10.0312C30.9396 10.0312 30.3042 9.90625 29.7 9.65625C29.1167 9.38542 28.6063 9.03125 28.1688 8.59375C27.7313 8.15625 27.3771 7.64583 27.1063 7.0625C26.8563 6.45833 26.7313 5.82292 26.7313 5.15625C26.7313 4.48958 26.8563 3.86458 27.1063 3.28125C27.3771 2.67708 27.7313 2.15625 28.1688 1.71875C28.6063 1.28125 29.1167 0.9375 29.7 0.6875C30.3042 0.416667 30.9396 0.28125 31.6063 0.28125C32.2729 0.28125 32.8979 0.416667 33.4813 0.6875C34.0854 0.9375 34.6063 1.28125 35.0438 1.71875C35.4813 2.15625 35.825 2.67708 36.075 3.28125C36.325 3.86458 36.45 4.48958 36.45 5.15625ZM36.45 14.625C36.2833 16.2708 36.1375 18.0521 36.0125 19.9688C35.9083 21.8646 35.8146 23.8125 35.7313 25.8125C35.6688 27.8125 35.6167 29.8229 35.575 31.8438C35.5333 33.8646 35.5021 35.7917 35.4813 37.625C35.4604 39.4583 35.4396 41.1771 35.4188 42.7812C35.4188 44.3646 35.4188 45.7292 35.4188 46.875V50.4062L28.325 50.6562C28.3667 49.2188 28.3875 47.8229 28.3875 46.4688C28.3875 45.1146 28.3875 43.7604 28.3875 42.4062C28.3875 40.0521 28.3667 37.7604 28.325 35.5312C28.2833 33.2812 28.2104 31.0312 28.1063 28.7812C28.0229 26.5312 27.9083 24.25 27.7625 21.9375C27.6167 19.625 27.4396 17.2292 27.2313 14.75L36.45 14.625ZM51.775 0.9375C51.65 3.47917 51.5354 5.83333 51.4313 8C51.3271 10.1667 51.2333 12.2083 51.15 14.125C51.0875 16.0417 51.0354 17.8646 50.9938 19.5938C50.9521 21.3229 50.9104 23.0312 50.8688 24.7188C50.8479 26.4062 50.8271 28.1042 50.8063 29.8125C50.8063 31.5208 50.8063 33.3125 50.8063 35.1875C50.8063 37.2708 50.8063 39.5 50.8063 41.875C50.8063 44.25 50.8271 46.8854 50.8688 49.7812L43.775 49.625C43.9 46.4792 43.9833 43.3854 44.025 40.3438C44.0667 37.2812 44.0875 34.1458 44.0875 30.9375C44.0875 28.7917 44.0771 26.5938 44.0563 24.3438C44.0354 22.0729 44.0042 19.7083 43.9625 17.25C43.9208 14.7708 43.8688 12.1667 43.8063 9.4375C43.7646 6.70833 43.7125 3.8125 43.65 0.75L51.775 0.9375ZM79.1937 32.6875C79.1937 33.9375 79.1833 35.0312 79.1625 35.9688C79.1417 36.8854 79.1104 37.7292 79.0687 38.5C79.0479 39.25 79.0062 39.9688 78.9437 40.6562C78.9021 41.3229 78.85 42.0417 78.7875 42.8125C78.725 43.5625 78.6521 44.4167 78.5687 45.375C78.4854 46.3125 78.3917 47.4167 78.2875 48.6875L71.2562 48.75C71.5479 45.3958 71.7562 42.1771 71.8812 39.0938C72.0271 35.9896 72.1 32.9167 72.1 29.875C72.1 26.9792 71.8292 24.8646 71.2875 23.5312C70.7667 22.1979 69.9646 21.5312 68.8812 21.5312C68.4646 21.6562 68.0583 21.9375 67.6625 22.375C67.3083 22.75 66.9437 23.3229 66.5687 24.0938C66.2146 24.8646 65.9021 25.9375 65.6312 27.3125C65.5896 28.3333 65.5687 29.3438 65.5687 30.3438C65.5687 31.3229 65.5687 32.2917 65.5687 33.25C65.5687 34.375 65.5687 35.5208 65.5687 36.6875C65.5896 37.8542 65.6 39.1042 65.6 40.4375C65.6208 41.7708 65.6417 43.2083 65.6625 44.75C65.6833 46.2708 65.7146 47.9479 65.7562 49.7812L58.6312 49.625C58.7771 47.2292 58.9021 45.0938 59.0062 43.2188C59.1104 41.3438 59.1937 39.6146 59.2562 38.0312C59.3396 36.4479 59.3917 34.9479 59.4125 33.5312C59.4542 32.1146 59.475 30.6562 59.475 29.1562C59.475 28.1562 59.4646 27.1354 59.4437 26.0938C59.4437 25.0312 59.4229 23.8958 59.3812 22.6875C59.3604 21.4792 59.3292 20.1875 59.2875 18.8125C59.2458 17.4167 59.2042 15.8958 59.1625 14.25L66.2562 14.375L66.0687 17.3125C66.6729 16.125 67.3083 15.2083 67.975 14.5625C68.6417 13.9167 69.2667 13.4479 69.85 13.1562C70.4333 12.8646 70.9229 12.6979 71.3187 12.6562C71.7354 12.6146 71.9958 12.5938 72.1 12.5938C72.725 12.5938 73.3187 12.6771 73.8812 12.8438C74.4646 13.0104 75.0062 13.3229 75.5062 13.7812C76.0271 14.2396 76.4958 14.875 76.9125 15.6875C77.35 16.5 77.725 17.5521 78.0375 18.8438C78.6 17.2604 79.2979 16.0417 80.1312 15.1875C80.9646 14.3333 81.7771 13.7188 82.5687 13.3438C83.3812 12.9479 84.0896 12.7292 84.6937 12.6875C85.3187 12.625 85.6833 12.5938 85.7875 12.5938C87.1208 12.5938 88.2458 13 89.1625 13.8125C90.0792 14.625 90.8083 15.8646 91.35 17.5312C91.8917 19.1979 92.2771 21.2917 92.5062 23.8125C92.7562 26.3333 92.8812 29.2917 92.8812 32.6875C92.8812 33.8125 92.8292 35.1146 92.725 36.5938C92.6208 38.0729 92.4854 39.6042 92.3187 41.1875C92.1521 42.75 91.975 44.3021 91.7875 45.8438C91.6 47.3854 91.4333 48.7604 91.2875 49.9688L84.2562 49.7188C84.6104 47.4896 84.8812 45.375 85.0687 43.375C85.2771 41.3542 85.4333 39.5625 85.5375 38C85.6417 36.1875 85.7042 34.5 85.725 32.9375C85.725 30.9583 85.6729 29.25 85.5687 27.8125C85.4854 26.375 85.3187 25.1979 85.0687 24.2812C84.8187 23.3438 84.475 22.6562 84.0375 22.2188C83.6 21.7604 83.0479 21.5312 82.3812 21.5312C81.9437 21.6562 81.5271 21.8958 81.1312 22.25C80.7771 22.5417 80.4021 22.9896 80.0062 23.5938C79.6312 24.1771 79.2979 24.9688 79.0062 25.9688C79.1312 27.8854 79.1937 30.125 79.1937 32.6875ZM82.7875 110.281L74.4437 110.906C74.7771 107.177 75.0167 103.583 75.1625 100.125C75.3292 96.6458 75.4125 93.1667 75.4125 89.6875C75.4125 87.2292 75.3708 84.7708 75.2875 82.3125C75.225 79.8333 75.1 77.2917 74.9125 74.6875L81.9437 74.3125C81.9021 74.7708 81.8708 75.2188 81.85 75.6562C81.8292 76.0938 81.8187 76.5208 81.8187 76.9375C82.5479 75.8125 83.3396 74.9375 84.1937 74.3125C85.0687 73.6667 85.8812 73.1979 86.6312 72.9062C87.4854 72.5521 88.35 72.3333 89.225 72.25C90.7458 72.25 92.0479 72.4896 93.1312 72.9688C94.2146 73.4271 95.1 74.0312 95.7875 74.7812C96.475 75.5104 96.975 76.3333 97.2875 77.25C97.6 78.1458 97.7562 79.0208 97.7562 79.875C97.7562 80.75 97.6625 81.6354 97.475 82.5312C97.2875 83.4271 96.9646 84.2396 96.5062 84.9688C96.0687 85.6771 95.475 86.2604 94.725 86.7188C93.9958 87.1562 93.0896 87.375 92.0062 87.375C90.9229 87.375 90.0687 87.1771 89.4437 86.7812C88.8187 86.3854 88.3396 85.9167 88.0062 85.375C87.6937 84.8125 87.4854 84.2396 87.3812 83.6562C87.2979 83.0521 87.2562 82.5417 87.2562 82.125C87.2562 81.8333 87.3083 81.5104 87.4125 81.1562C87.5167 80.7812 87.6729 80.4062 87.8812 80.0312C88.0896 79.6562 88.35 79.2917 88.6625 78.9375C88.975 78.5625 89.3396 78.2188 89.7562 77.9062C89.6312 77.8646 89.4958 77.8333 89.35 77.8125C89.225 77.7917 89.1 77.7812 88.975 77.7812C87.9333 77.7812 87.0062 78.1146 86.1937 78.7812C85.3812 79.4271 84.6729 80.3333 84.0687 81.5C83.4854 82.6667 82.9958 84.0417 82.6 85.625C82.225 87.2083 81.9437 88.9375 81.7562 90.8125C81.8604 94.0417 82.0062 97.2396 82.1937 100.406C82.3812 103.573 82.5792 106.865 82.7875 110.281ZM118.206 110.281C118.081 109.635 117.967 108.979 117.863 108.312C117.758 107.646 117.675 106.958 117.613 106.25C116.654 107.667 115.508 108.75 114.175 109.5C112.842 110.271 111.383 110.656 109.8 110.656C108.988 110.656 108.154 110.521 107.3 110.25C106.446 110 105.665 109.552 104.956 108.906C104.269 108.26 103.696 107.385 103.238 106.281C102.8 105.156 102.581 103.74 102.581 102.031C102.581 100.615 102.79 99.3854 103.206 98.3438C103.623 97.2812 104.165 96.3542 104.831 95.5625C105.498 94.7708 106.248 94.0833 107.081 93.5C107.915 92.9167 108.738 92.3958 109.55 91.9375C110.383 91.4792 111.175 91.0521 111.925 90.6562C112.675 90.2604 113.29 89.8646 113.769 89.4688C114.685 88.7396 115.477 87.9688 116.144 87.1562C116.831 86.3229 117.383 85.4583 117.8 84.5625C117.717 83.125 117.56 81.9479 117.331 81.0312C117.123 80.0938 116.842 79.3542 116.488 78.8125C116.133 78.25 115.696 77.8646 115.175 77.6562C114.675 77.4271 114.102 77.3125 113.456 77.3125C112.498 77.3125 111.685 77.5208 111.019 77.9375C110.373 78.3542 109.842 78.8542 109.425 79.4375C109.946 79.7708 110.342 80.125 110.613 80.5C110.904 80.875 111.123 81.2396 111.269 81.5938C111.435 81.9896 111.529 82.3958 111.55 82.8125C111.55 84.2292 111.144 85.3125 110.331 86.0625C109.54 86.8125 108.519 87.1875 107.269 87.1875C106.623 87.1875 106.029 87.0417 105.488 86.75C104.946 86.4375 104.467 86.0104 104.05 85.4688C103.654 84.9271 103.342 84.2812 103.113 83.5312C102.883 82.7812 102.769 81.9688 102.769 81.0938C102.769 80.2188 102.967 79.2917 103.363 78.3125C103.758 77.3333 104.394 76.4271 105.269 75.5938C106.144 74.7396 107.269 74.0417 108.644 73.5C110.019 72.9375 111.685 72.6562 113.644 72.6562C115.602 72.6562 117.279 73.0417 118.675 73.8125C120.071 74.5625 121.217 75.5729 122.113 76.8438C123.008 78.0938 123.654 79.5417 124.05 81.1875C124.467 82.8333 124.675 84.5312 124.675 86.2812C124.675 87.5938 124.665 89.0208 124.644 90.5625C124.623 92.1042 124.613 93.6875 124.613 95.3125C124.613 96.6667 124.623 98.0208 124.644 99.375C124.665 100.729 124.706 102.042 124.769 103.312C124.831 104.562 124.915 105.75 125.019 106.875C125.123 107.979 125.258 108.969 125.425 109.844L118.206 110.281ZM117.738 91.9688C117.008 92.8438 116.227 93.5938 115.394 94.2188C114.769 94.6562 114.092 95.1458 113.363 95.6875C112.654 96.2292 111.988 96.8021 111.363 97.4062C110.758 98.0104 110.248 98.6458 109.831 99.3125C109.435 99.9583 109.238 100.625 109.238 101.312C109.238 102.25 109.467 103.052 109.925 103.719C110.383 104.385 111.029 104.719 111.863 104.719C112.633 104.719 113.321 104.51 113.925 104.094C114.529 103.677 115.06 103.167 115.519 102.562C115.998 101.938 116.394 101.271 116.706 100.562C117.04 99.8542 117.3 99.2083 117.488 98.625L117.738 91.9688ZM140.438 110.281L132.094 110.906C132.427 107.177 132.667 103.583 132.812 100.125C132.979 96.6458 133.062 93.1667 133.062 89.6875C133.062 87.2292 133.021 84.7708 132.938 82.3125C132.875 79.8333 132.75 77.2917 132.562 74.6875L139.594 74.3125C139.552 74.7708 139.521 75.2188 139.5 75.6562C139.479 76.0938 139.469 76.5208 139.469 76.9375C140.198 75.8125 140.99 74.9375 141.844 74.3125C142.719 73.6667 143.531 73.1979 144.281 72.9062C145.135 72.5521 146 72.3333 146.875 72.25C148.396 72.25 149.698 72.4896 150.781 72.9688C151.865 73.4271 152.75 74.0312 153.438 74.7812C154.125 75.5104 154.625 76.3333 154.938 77.25C155.25 78.1458 155.406 79.0208 155.406 79.875C155.406 80.75 155.312 81.6354 155.125 82.5312C154.938 83.4271 154.615 84.2396 154.156 84.9688C153.719 85.6771 153.125 86.2604 152.375 86.7188C151.646 87.1562 150.74 87.375 149.656 87.375C148.573 87.375 147.719 87.1771 147.094 86.7812C146.469 86.3854 145.99 85.9167 145.656 85.375C145.344 84.8125 145.135 84.2396 145.031 83.6562C144.948 83.0521 144.906 82.5417 144.906 82.125C144.906 81.8333 144.958 81.5104 145.062 81.1562C145.167 80.7812 145.323 80.4062 145.531 80.0312C145.74 79.6562 146 79.2917 146.312 78.9375C146.625 78.5625 146.99 78.2188 147.406 77.9062C147.281 77.8646 147.146 77.8333 147 77.8125C146.875 77.7917 146.75 77.7812 146.625 77.7812C145.583 77.7812 144.656 78.1146 143.844 78.7812C143.031 79.4271 142.323 80.3333 141.719 81.5C141.135 82.6667 140.646 84.0417 140.25 85.625C139.875 87.2083 139.594 88.9375 139.406 90.8125C139.51 94.0417 139.656 97.2396 139.844 100.406C140.031 103.573 140.229 106.865 140.438 110.281ZM185.137 75.2812C185.012 76.5104 184.908 77.7604 184.825 79.0312C184.742 80.2812 184.658 81.5312 184.575 82.7812C184.512 84.0312 184.45 85.25 184.387 86.4375C184.325 87.6042 184.273 88.7188 184.231 89.7812C184.127 92.2604 184.044 94.6562 183.981 96.9688C183.856 99.4271 183.783 101.865 183.762 104.281C183.762 106.677 183.69 108.958 183.544 111.125C183.398 113.312 183.117 115.333 182.7 117.188C182.304 119.062 181.648 120.677 180.731 122.031C179.815 123.406 178.575 124.479 177.012 125.25C175.471 126.021 173.481 126.406 171.044 126.406C169.21 126.406 167.742 126.135 166.637 125.594C165.554 125.073 164.721 124.427 164.137 123.656C163.554 122.906 163.169 122.104 162.981 121.25C162.815 120.396 162.731 119.635 162.731 118.969C162.731 118.26 162.835 117.594 163.044 116.969C163.273 116.365 163.585 115.833 163.981 115.375C164.377 114.917 164.856 114.552 165.419 114.281C166.002 114.01 166.658 113.875 167.387 113.875C168.158 113.875 168.846 114.021 169.45 114.312C170.054 114.604 170.554 114.979 170.95 115.438C171.367 115.917 171.679 116.448 171.887 117.031C172.096 117.615 172.2 118.198 172.2 118.781C172.179 119.115 172.106 119.458 171.981 119.812C171.877 120.104 171.69 120.427 171.419 120.781C171.169 121.156 170.815 121.521 170.356 121.875C170.606 121.979 170.835 122.042 171.044 122.062C171.273 122.104 171.492 122.125 171.7 122.125C172.242 122.125 172.804 121.958 173.387 121.625C173.992 121.312 174.544 120.812 175.044 120.125C175.544 119.438 175.96 118.573 176.294 117.531C176.627 116.49 176.815 115.25 176.856 113.812C176.856 112.25 176.856 110.719 176.856 109.219C176.877 107.719 176.908 106.062 176.95 104.25C176.242 105.604 175.481 106.656 174.669 107.406C173.856 108.135 173.085 108.677 172.356 109.031C171.523 109.448 170.679 109.698 169.825 109.781C168.283 109.781 166.94 109.396 165.794 108.625C164.648 107.854 163.7 106.76 162.95 105.344C162.2 103.927 161.637 102.229 161.262 100.25C160.908 98.25 160.731 96.0208 160.731 93.5625C160.731 86.75 161.2 80.25 162.137 74.0625L170.075 74.9375C169.908 75.625 169.742 76.375 169.575 77.1875C169.429 78 169.294 78.8438 169.169 79.7188C169.044 80.5938 168.929 81.4792 168.825 82.375C168.742 83.25 168.658 84.0938 168.575 84.9062C168.387 86.8229 168.231 88.7708 168.106 90.75C168.106 92.7292 168.169 94.4583 168.294 95.9375C168.419 97.3958 168.637 98.6146 168.95 99.5938C169.283 100.552 169.731 101.271 170.294 101.75C170.856 102.229 171.575 102.469 172.45 102.469C173.075 102.365 173.679 101.927 174.262 101.156C174.512 100.823 174.773 100.406 175.044 99.9062C175.315 99.4062 175.585 98.7917 175.856 98.0625C176.127 97.3333 176.387 96.4792 176.637 95.5C176.887 94.5 177.117 93.3438 177.325 92.0312C177.387 90.4062 177.429 88.9271 177.45 87.5938C177.492 86.2396 177.512 84.9479 177.512 83.7188C177.512 82.2396 177.481 80.8229 177.419 79.4688C177.356 78.0938 177.262 76.6562 177.137 75.1562L185.137 75.2812Z" fill="#FFA51F"/>
<path d="M21.8125 110.969C20.3125 110.927 18.8958 110.906 17.5625 110.906C16.2292 110.906 14.9792 110.906 13.8125 110.906C11.4375 110.906 9.39583 110.927 7.6875 110.969C6 111.031 4.59375 111.083 3.46875 111.125C2.17708 111.188 1.08333 111.25 0.1875 111.312C0.333333 109.917 0.458333 108.5 0.5625 107.062C0.6875 105.625 0.791667 104.208 0.875 102.812C0.958333 101.417 1.03125 100.062 1.09375 98.75C1.15625 97.4375 1.20833 96.1979 1.25 95.0312C1.33333 92.3229 1.38542 89.7083 1.40625 87.1875C1.38542 84.6875 1.33333 82.125 1.25 79.5C1.20833 78.375 1.15625 77.1979 1.09375 75.9688C1.03125 74.7188 0.958333 73.4479 0.875 72.1562C0.791667 70.8646 0.6875 69.5729 0.5625 68.2812C0.458333 66.9688 0.333333 65.6979 0.1875 64.4688L9.40625 64C9.01042 68.7083 8.73958 73.25 8.59375 77.625C8.44792 81.9792 8.375 86 8.375 89.6875C8.375 93.2292 8.40625 96.2604 8.46875 98.7812C8.55208 101.302 8.625 103.219 8.6875 104.531H8.8125C10.4375 104.531 12.0208 104.406 13.5625 104.156C15.125 103.906 16.5208 103.625 17.75 103.312C19.1875 102.958 20.5417 102.552 21.8125 102.094C21.7917 102.323 21.7812 102.615 21.7812 102.969C21.7604 103.26 21.75 103.646 21.75 104.125C21.75 104.583 21.75 105.146 21.75 105.812C21.75 106.479 21.75 107.24 21.75 108.094C21.75 108.927 21.7708 109.885 21.8125 110.969ZM36.6375 65.1562C36.6375 65.8229 36.5125 66.4583 36.2625 67.0625C36.0125 67.6458 35.6688 68.1562 35.2313 68.5938C34.7938 69.0312 34.2729 69.3854 33.6688 69.6562C33.0854 69.9062 32.4604 70.0312 31.7938 70.0312C31.1271 70.0312 30.4917 69.9062 29.8875 69.6562C29.3042 69.3854 28.7938 69.0312 28.3563 68.5938C27.9188 68.1562 27.5646 67.6458 27.2938 67.0625C27.0438 66.4583 26.9188 65.8229 26.9188 65.1562C26.9188 64.4896 27.0438 63.8646 27.2938 63.2812C27.5646 62.6771 27.9188 62.1562 28.3563 61.7188C28.7938 61.2812 29.3042 60.9375 29.8875 60.6875C30.4917 60.4167 31.1271 60.2812 31.7938 60.2812C32.4604 60.2812 33.0854 60.4167 33.6688 60.6875C34.2729 60.9375 34.7938 61.2812 35.2313 61.7188C35.6688 62.1562 36.0125 62.6771 36.2625 63.2812C36.5125 63.8646 36.6375 64.4896 36.6375 65.1562ZM36.6375 74.625C36.4708 76.2708 36.325 78.0521 36.2 79.9688C36.0958 81.8646 36.0021 83.8125 35.9188 85.8125C35.8563 87.8125 35.8042 89.8229 35.7625 91.8438C35.7208 93.8646 35.6896 95.7917 35.6688 97.625C35.6479 99.4583 35.6271 101.177 35.6063 102.781C35.6063 104.365 35.6063 105.729 35.6063 106.875V110.406L28.5125 110.656C28.5542 109.219 28.575 107.823 28.575 106.469C28.575 105.115 28.575 103.76 28.575 102.406C28.575 100.052 28.5542 97.7604 28.5125 95.5312C28.4708 93.2812 28.3979 91.0312 28.2938 88.7812C28.2104 86.5312 28.0958 84.25 27.95 81.9375C27.8042 79.625 27.6271 77.2292 27.4188 74.75L36.6375 74.625ZM52.5875 61.9688C52.3375 64.6979 52.1188 67.4062 51.9313 70.0938C51.7438 72.7604 51.5771 75.4479 51.4313 78.1562C52.1396 76.8854 52.9 75.9062 53.7125 75.2188C54.525 74.5104 55.2854 73.9896 55.9938 73.6562C56.8271 73.2812 57.6396 73.0521 58.4313 72.9688C59.9313 72.9688 61.2646 73.2812 62.4313 73.9062C63.5979 74.5312 64.5771 75.6042 65.3688 77.125C66.1813 78.625 66.7958 80.6354 67.2125 83.1562C67.6292 85.6562 67.8375 88.7917 67.8375 92.5625C67.8375 96.0417 67.5042 98.9688 66.8375 101.344C66.1917 103.698 65.3479 105.604 64.3063 107.062C63.2854 108.5 62.1396 109.531 60.8688 110.156C59.6188 110.802 58.3792 111.125 57.15 111.125C57.025 111.125 56.7438 111.094 56.3063 111.031C55.8896 110.99 55.3792 110.833 54.775 110.562C54.1708 110.312 53.525 109.927 52.8375 109.406C52.15 108.885 51.4938 108.156 50.8688 107.219V110.656L43.8375 110.531C44.025 107.49 44.15 104.458 44.2125 101.438C44.2958 98.4167 44.3375 95.3958 44.3375 92.375C44.3375 87.2917 44.2542 82.25 44.0875 77.25C43.9208 72.2292 43.7229 67.1771 43.4938 62.0938L52.5875 61.9688ZM54.8375 105.344C54.9417 105.385 55.0458 105.406 55.15 105.406C55.275 105.406 55.4 105.406 55.525 105.406C56.0875 105.406 56.6708 105.219 57.275 104.844C57.9 104.448 58.4625 103.76 58.9625 102.781C59.4625 101.802 59.8792 100.479 60.2125 98.8125C60.5458 97.125 60.7125 94.9792 60.7125 92.375C60.7125 90.0417 60.5979 88.1042 60.3688 86.5625C60.1604 85 59.8688 83.75 59.4938 82.8125C59.1188 81.875 58.6813 81.2188 58.1813 80.8438C57.6813 80.4479 57.1604 80.25 56.6188 80.25C56.0563 80.25 55.5354 80.4062 55.0563 80.7188C54.5979 81.0104 54.1813 81.4062 53.8063 81.9062C53.4313 82.3854 53.0875 82.9375 52.775 83.5625C52.4833 84.1875 52.2229 84.8125 51.9938 85.4375C51.7646 86.0417 51.5667 86.6354 51.4 87.2188C51.2542 87.7812 51.1396 88.2604 51.0563 88.6562C50.9313 92.7604 50.8688 96.8333 50.8688 100.875C51.3479 101.875 51.8271 102.667 52.3063 103.25C52.7854 103.833 53.2125 104.281 53.5875 104.594C54.025 104.969 54.4417 105.219 54.8375 105.344Z" fill="#787AE7"/>
</svg>
