<svg width="392" height="118" viewBox="0 0 392 118" fill="none" xmlns="http://www.w3.org/2000/svg">
<path d="M23.957 52C20.3711 52 16.9258 52.3047 13.6211 52.9141C10.3164 53.5469 6.92969 54.4844 3.46094 55.7266C5.28906 47.8516 6.56641 40 7.29297 32.1719C8.04297 24.3438 8.44141 16.5508 8.48828 8.79297L2.23047 7.94922C3.28516 7.57422 4.32812 7.21094 5.35938 6.85938C6.39062 6.50781 7.43359 6.16797 8.48828 5.83984C8.48828 4.94922 8.47656 4.04688 8.45312 3.13281C8.42969 2.19531 8.41797 1.28125 8.41797 0.390625C10.0352 0.601562 11.6641 0.777344 13.3047 0.917969C14.9453 1.03516 16.6094 1.09375 18.2969 1.09375C19.3047 1.09375 20.2891 1.07031 21.25 1.02344C22.2344 0.953125 23.2422 0.882812 24.2734 0.8125L24.0977 2.11328C26.793 1.66797 29.4648 1.32813 32.1133 1.09375C34.7617 0.859375 37.4219 0.742188 40.0938 0.742188C42.4141 0.742188 44.7227 0.824219 47.0195 0.988281C49.3164 1.12891 51.6367 1.375 53.9805 1.72656C53.418 5.35937 53.1367 8.94531 53.1367 12.4844C53.1367 13.9609 53.1719 15.4375 53.2422 16.9141C53.3359 18.3906 53.4883 19.8672 53.6992 21.3438C48.7539 19.3516 43.7852 17.5703 38.793 16C33.8242 14.4063 28.7617 12.9883 23.6055 11.7461C23.5352 13.082 23.4883 14.4063 23.4648 15.7188C23.4648 17.0078 23.4648 18.2969 23.4648 19.5859V23.418C25.4336 23.1367 27.3789 22.9141 29.3008 22.75C31.2461 22.5625 33.2148 22.4688 35.207 22.4688C35.6992 22.4688 36.1914 22.4805 36.6836 22.5039C37.1992 22.5273 37.7148 22.5391 38.2305 22.5391C37.6445 25.3047 37.3516 28.1172 37.3516 30.9766C37.3516 32.1484 37.3984 33.3203 37.4922 34.4922C37.5859 35.6641 37.7148 36.8477 37.8789 38.043C35.6758 36.4258 33.3906 34.9258 31.0234 33.543C28.6562 32.1602 26.207 30.8711 23.6758 29.6758C23.8164 33.4023 24.0625 37.1289 24.4141 40.8555C24.7891 44.5586 25.2461 48.2734 25.7852 52H23.957ZM80.3617 10.0938C79.682 14.0078 79.1781 17.9688 78.85 21.9766C78.5219 25.9609 78.3578 29.9922 78.3578 34.0703C78.3578 37.1406 78.4398 40.1875 78.6039 43.2109C78.7914 46.2344 79.0844 49.2109 79.4828 52.1406C78.6156 52.1406 77.7367 52.1055 76.8461 52.0352C75.9555 51.9648 74.9711 51.9297 73.893 51.9297C71.9711 51.9297 69.9906 52.0469 67.9516 52.2812C65.9125 52.5156 63.7328 52.8555 61.4125 53.3008C62.0687 49.9961 62.5961 46.6094 62.9945 43.1406C63.393 39.6719 63.5922 36.1445 63.5922 32.5586C63.5922 29.5586 63.4398 26.5703 63.1352 23.5938C62.8305 20.5938 62.35 17.6055 61.6937 14.6289C63.2406 14.4648 64.7406 14.2539 66.1937 13.9961C67.6469 13.7148 69.1234 13.3867 70.6234 13.0117C72.1234 12.6367 73.6703 12.2148 75.2641 11.7461C76.8578 11.2539 78.557 10.7031 80.3617 10.0938ZM134.305 52.2109C130.438 51.7422 126.735 51.3789 123.196 51.1211C119.657 50.8398 116.141 50.6992 112.649 50.6992C108.618 50.6992 104.563 50.8633 100.485 51.1914C96.4305 51.5195 92.2234 52.0234 87.8641 52.7031C88.8953 52.0234 89.9266 51.3555 90.9578 50.6992C91.9891 50.0195 93.0437 49.375 94.1219 48.7656C94.5906 46.2109 94.9305 43.6914 95.1414 41.207C95.3758 38.6992 95.493 36.2031 95.493 33.7188C95.493 29.9922 95.2586 26.3242 94.7898 22.7148C94.3211 19.082 93.6766 15.4492 92.8562 11.8164H96.2312C98.8094 11.8164 101.387 11.6758 103.966 11.3945C106.567 11.1133 109.345 10.6797 112.298 10.0938C112.298 15.4609 112.005 20.7812 111.419 26.0547C110.833 31.3047 109.872 36.5898 108.536 41.9102C112.333 40.5039 116.235 39.2852 120.243 38.2539C124.274 37.2227 128.505 36.3789 132.934 35.7227C132.817 36.6602 132.723 37.6094 132.653 38.5703C132.606 39.5312 132.583 40.5039 132.583 41.4883C132.583 43.3633 132.712 45.2031 132.97 47.0078C133.251 48.7891 133.696 50.5234 134.305 52.2109ZM203.964 11.8867C203.073 13.7148 202.323 15.4727 201.714 17.1602C201.105 18.8477 200.613 20.4648 200.238 22.0117C199.863 23.5586 199.593 25.0469 199.429 26.4766C199.288 27.9062 199.218 29.2656 199.218 30.5547C199.218 33.0859 199.488 35.4062 200.027 37.5156C200.589 39.6016 201.304 41.5117 202.171 43.2461C203.038 44.957 204.011 46.5039 205.089 47.8867C206.191 49.2695 207.28 50.5 208.359 51.5781C207.421 51.5781 206.554 51.5312 205.757 51.4375C204.984 51.3438 204.128 51.2969 203.191 51.2969C202.183 51.2969 201.198 51.3672 200.238 51.5078C199.277 51.625 198.292 51.8008 197.284 52.0352C196.3 52.293 195.269 52.6094 194.191 52.9844C193.113 53.3594 191.952 53.8047 190.71 54.3203C189.632 51.5312 188.765 48.7422 188.109 45.9531C187.452 43.1641 186.984 40.375 186.702 37.5859C185.53 39.9062 184.546 42.332 183.749 44.8633C182.952 47.3945 182.378 50.1133 182.027 53.0195C181.745 53.0195 181.148 53.0312 180.234 53.0547C179.343 53.0781 178.241 53.1367 176.929 53.2305C175.64 53.3477 174.222 53.5234 172.675 53.7578C171.128 54.0156 169.581 54.3672 168.034 54.8125C167.706 51.6719 167.155 48.7188 166.382 45.9531C165.609 43.1641 164.624 40.5273 163.429 38.043C163.148 40.7383 162.667 43.4453 161.988 46.1641C161.308 48.8828 160.441 51.6016 159.386 54.3203C154.558 52.3047 149.741 51.2969 144.937 51.2969C144.21 51.2969 143.343 51.3438 142.335 51.4375C141.327 51.5078 140.32 51.5781 139.312 51.6484C142.991 48.1094 145.78 44.1484 147.679 39.7656C149.601 35.3594 150.562 30.4609 150.562 25.0703C150.562 24.4609 150.538 23.8164 150.491 23.1367C150.445 22.4336 150.386 21.707 150.316 20.957C148.558 19.293 146.683 17.6641 144.691 16.0703C142.722 14.4766 140.636 12.8477 138.433 11.1836C139.417 11.3711 140.73 11.6289 142.37 11.957C144.034 12.2617 146.015 12.4141 148.312 12.4141C150.304 12.4141 152.507 12.2148 154.921 11.8164C157.335 11.418 159.89 10.6562 162.585 9.53125C164.132 11.6641 165.667 14.125 167.191 16.9141C168.503 19.3047 169.874 22.1758 171.304 25.5273C172.757 28.8555 174.07 32.5938 175.241 36.7422L177.702 30.625C178.499 28.6328 179.261 26.7109 179.988 24.8594C180.738 23.0078 181.429 21.1914 182.062 19.4102C182.718 17.6055 183.304 15.8008 183.82 13.9961C184.359 12.168 184.839 10.2695 185.261 8.30078C186.948 9.19141 188.671 9.88281 190.429 10.375C192.187 10.8672 193.886 11.2305 195.527 11.4648C197.191 11.6758 198.749 11.8047 200.202 11.8516C201.655 11.875 202.909 11.8867 203.964 11.8867ZM200.73 110.137C197.308 110.395 193.98 110.992 190.745 111.93C187.534 112.844 184.265 114.109 180.937 115.727C180.421 110.688 179.191 106.035 177.245 101.77C176.308 101.98 175.359 102.145 174.398 102.262C173.437 102.379 172.441 102.438 171.409 102.438C171.011 102.438 170.613 102.438 170.214 102.438C169.839 102.438 169.452 102.414 169.054 102.367C169.124 106 169.265 109.621 169.476 113.23C168.726 113.113 167.976 113.031 167.226 112.984C166.476 112.961 165.761 112.949 165.081 112.949C162.761 112.949 160.218 113.207 157.452 113.723C154.687 114.262 151.71 115.059 148.523 116.113C149.718 112.879 150.738 109.668 151.581 106.48C152.448 103.293 153.128 100.07 153.62 96.8125C152.027 95.7578 150.655 94.7266 149.507 93.7188C148.382 92.7109 147.527 91.8672 146.941 91.1875C148.089 91.5156 149.273 91.8203 150.491 92.1016C151.734 92.3828 152.976 92.6289 154.218 92.8398C154.499 90.168 154.64 87.4609 154.64 84.7188V83.418C153.374 83.8164 152.12 84.2383 150.878 84.6836C149.636 85.1289 148.394 85.6211 147.152 86.1602C147.878 83.8164 148.241 81.6484 148.241 79.6562C148.241 77.9922 148.03 76.4219 147.609 74.9453C147.187 73.4453 146.577 72.0391 145.78 70.7266C150.82 70.0234 155.273 69.5547 159.14 69.3203C163.03 69.0625 166.499 68.9336 169.546 68.9336C170.952 68.9336 172.57 68.9688 174.398 69.0391C176.226 69.0859 178.101 69.2266 180.023 69.4609C181.945 69.6953 183.855 70.0352 185.753 70.4805C187.675 70.9258 189.433 71.5352 191.027 72.3086C192.62 73.082 193.98 74.0547 195.105 75.2266C196.253 76.3984 197.027 77.8047 197.425 79.4453C197.964 79.1875 198.491 78.9297 199.007 78.6719C199.523 78.4141 200.05 78.1211 200.589 77.793C200.308 79.4805 199.839 81.168 199.183 82.8555C198.527 84.5195 197.706 86.1367 196.722 87.707C195.761 89.2773 194.636 90.7656 193.347 92.1719C192.081 93.5781 190.698 94.8789 189.198 96.0742C192.573 101.418 196.417 106.105 200.73 110.137ZM176.894 79.6562C175.956 79.6562 174.843 79.7148 173.554 79.832C172.265 79.9258 170.859 80.043 169.335 80.1836C169.265 82.4336 169.195 84.6836 169.124 86.9336C169.077 89.1602 169.054 91.375 169.054 93.5781C170.46 93.3672 171.784 93.0273 173.027 92.5586C174.269 92.0664 175.37 91.4336 176.331 90.6602C177.292 89.8867 178.077 88.9492 178.687 87.8477C179.32 86.7227 179.73 85.4102 179.917 83.9102C180.808 83.7695 181.71 83.6289 182.624 83.4883C183.562 83.3477 184.511 83.1836 185.472 82.9961C185.425 82.9961 185.402 82.9844 185.402 82.9609V82.9258H185.472C185.003 82.4102 184.511 81.9531 183.995 81.5547C183.503 81.1328 182.929 80.7812 182.273 80.5C181.616 80.2188 180.855 80.0078 179.988 79.8672C179.12 79.7266 178.089 79.6562 176.894 79.6562ZM262.197 98.7461C261.212 99.2148 260.24 99.6719 259.279 100.117C258.318 100.539 257.345 100.949 256.361 101.348C258.517 105.238 260.896 108.906 263.498 112.352C259.865 112.352 256.396 112.703 253.091 113.406C249.787 114.133 246.435 115.246 243.037 116.746C243.295 116.137 243.447 115.504 243.494 114.848C243.564 114.215 243.599 113.559 243.599 112.879C243.599 111.754 243.494 110.523 243.283 109.188C243.072 107.828 242.755 106.41 242.334 104.934C241.349 105.074 240.365 105.18 239.38 105.25C238.396 105.297 237.435 105.32 236.498 105.32C234.834 105.32 233.193 105.227 231.576 105.039C229.982 104.828 228.447 104.488 226.97 104.02C226.572 105.754 226.209 107.535 225.88 109.363C225.552 111.168 225.224 113.031 224.896 114.953C223.701 114.344 222.388 113.793 220.959 113.301C219.74 112.902 218.322 112.527 216.705 112.176C215.111 111.824 213.423 111.648 211.642 111.648C210.119 111.648 208.502 111.777 206.791 112.035C205.08 112.293 203.193 112.715 201.13 113.301C202.724 111.73 204.212 110.137 205.595 108.52C207.002 106.879 208.279 105.309 209.427 103.809C210.599 102.285 211.63 100.867 212.521 99.5547C213.435 98.2188 214.197 97.0586 214.806 96.0742C214.127 95.2539 213.494 94.375 212.908 93.4375C212.345 92.5 211.806 91.4922 211.291 90.4141C212.228 90.8828 213.154 91.3164 214.068 91.7148C214.982 92.0898 215.884 92.4414 216.775 92.7695C217.853 90.8711 218.99 88.9609 220.185 87.0391C221.38 85.1172 222.658 83.2422 224.017 81.4141C223.736 80.7344 223.373 79.9609 222.927 79.0938C222.505 78.2266 222.037 77.3359 221.521 76.4219C221.029 75.4844 220.502 74.5586 219.939 73.6445C219.377 72.7305 218.826 71.8867 218.287 71.1133C220.537 71.7227 222.787 72.2031 225.037 72.5547C227.31 72.9062 229.572 73.1406 231.822 73.2578C233.111 72.2031 234.459 71.2422 235.865 70.375C237.271 69.4844 238.748 68.6992 240.295 68.0195C239.802 68.8398 239.322 69.6836 238.853 70.5508C238.384 71.418 237.927 72.2969 237.482 73.1875C238.654 73.0703 239.837 72.9414 241.033 72.8008C242.228 72.6367 243.47 72.4258 244.759 72.168C245.627 75.332 246.576 78.4141 247.607 81.4141C248.638 84.4141 249.752 87.3672 250.947 90.2734C251.978 89.6875 252.998 89.0898 254.005 88.4805C255.037 87.8477 256.056 87.168 257.064 86.4414C257.791 88.9023 258.576 91.1641 259.42 93.2266C260.263 95.2891 261.189 97.1289 262.197 98.7461ZM238.642 95.0195C237.822 93.1914 236.92 91.3516 235.935 89.5C234.974 87.625 233.931 85.7383 232.806 83.8398C231.423 87.543 230.158 91.4805 229.009 95.6523C229.431 95.6992 229.841 95.7227 230.24 95.7227C230.662 95.7227 231.084 95.7227 231.505 95.7227C232.701 95.7227 233.884 95.6758 235.056 95.582C236.252 95.4648 237.447 95.2773 238.642 95.0195ZM324.789 110.137C321.367 110.395 318.039 110.992 314.805 111.93C311.594 112.844 308.324 114.109 304.996 115.727C304.48 110.688 303.25 106.035 301.305 101.77C300.367 101.98 299.418 102.145 298.457 102.262C297.496 102.379 296.5 102.438 295.469 102.438C295.07 102.438 294.672 102.438 294.273 102.438C293.898 102.438 293.512 102.414 293.113 102.367C293.184 106 293.324 109.621 293.535 113.23C292.785 113.113 292.035 113.031 291.285 112.984C290.535 112.961 289.82 112.949 289.141 112.949C286.82 112.949 284.277 113.207 281.512 113.723C278.746 114.262 275.77 115.059 272.582 116.113C273.777 112.879 274.797 109.668 275.641 106.48C276.508 103.293 277.188 100.07 277.68 96.8125C276.086 95.7578 274.715 94.7266 273.566 93.7188C272.441 92.7109 271.586 91.8672 271 91.1875C272.148 91.5156 273.332 91.8203 274.551 92.1016C275.793 92.3828 277.035 92.6289 278.277 92.8398C278.559 90.168 278.699 87.4609 278.699 84.7188V83.418C277.434 83.8164 276.18 84.2383 274.938 84.6836C273.695 85.1289 272.453 85.6211 271.211 86.1602C271.938 83.8164 272.301 81.6484 272.301 79.6562C272.301 77.9922 272.09 76.4219 271.668 74.9453C271.246 73.4453 270.637 72.0391 269.84 70.7266C274.879 70.0234 279.332 69.5547 283.199 69.3203C287.09 69.0625 290.559 68.9336 293.605 68.9336C295.012 68.9336 296.629 68.9688 298.457 69.0391C300.285 69.0859 302.16 69.2266 304.082 69.4609C306.004 69.6953 307.914 70.0352 309.812 70.4805C311.734 70.9258 313.492 71.5352 315.086 72.3086C316.68 73.082 318.039 74.0547 319.164 75.2266C320.312 76.3984 321.086 77.8047 321.484 79.4453C322.023 79.1875 322.551 78.9297 323.066 78.6719C323.582 78.4141 324.109 78.1211 324.648 77.793C324.367 79.4805 323.898 81.168 323.242 82.8555C322.586 84.5195 321.766 86.1367 320.781 87.707C319.82 89.2773 318.695 90.7656 317.406 92.1719C316.141 93.5781 314.758 94.8789 313.258 96.0742C316.633 101.418 320.477 106.105 324.789 110.137ZM300.953 79.6562C300.016 79.6562 298.902 79.7148 297.613 79.832C296.324 79.9258 294.918 80.043 293.395 80.1836C293.324 82.4336 293.254 84.6836 293.184 86.9336C293.137 89.1602 293.113 91.375 293.113 93.5781C294.52 93.3672 295.844 93.0273 297.086 92.5586C298.328 92.0664 299.43 91.4336 300.391 90.6602C301.352 89.8867 302.137 88.9492 302.746 87.8477C303.379 86.7227 303.789 85.4102 303.977 83.9102C304.867 83.7695 305.77 83.6289 306.684 83.4883C307.621 83.3477 308.57 83.1836 309.531 82.9961C309.484 82.9961 309.461 82.9844 309.461 82.9609V82.9258H309.531C309.062 82.4102 308.57 81.9531 308.055 81.5547C307.562 81.1328 306.988 80.7812 306.332 80.5C305.676 80.2188 304.914 80.0078 304.047 79.8672C303.18 79.7266 302.148 79.6562 300.953 79.6562ZM391.952 71.2539C387.147 74.9805 382.612 78.9062 378.346 83.0312C374.104 87.1562 370.166 91.6094 366.534 96.3906H366.674C366.463 97.7266 366.416 99.1094 366.534 100.539C366.651 101.969 366.885 103.41 367.237 104.863C367.588 106.293 368.022 107.711 368.538 109.117C369.077 110.5 369.651 111.824 370.26 113.09C367.495 112.34 364.846 111.766 362.315 111.367C359.807 110.969 357.393 110.77 355.073 110.77C353.526 110.77 351.897 110.863 350.186 111.051C348.498 111.215 346.694 111.461 344.772 111.789C346.155 109.141 347.303 106.469 348.217 103.773C349.131 101.055 349.717 98.2305 349.975 95.3008H350.045C347.514 90.918 344.526 86.8164 341.08 82.9961C337.659 79.1523 333.733 75.6016 329.303 72.3438H329.725C331.483 72.6016 333.194 72.8008 334.858 72.9414C336.545 73.0586 338.221 73.1172 339.885 73.1172C343.541 73.1172 347.268 72.6133 351.065 71.6055C353.01 77.1133 355.764 81.6484 359.327 85.2109C361.225 83.4062 362.877 81.332 364.284 78.9883C365.713 76.6445 366.873 74.0898 367.764 71.3242C369.663 71.7461 371.502 72.0625 373.284 72.2734C375.088 72.4609 376.823 72.5547 378.487 72.5547C380.526 72.5547 382.623 72.4492 384.78 72.2383C386.936 72.0039 389.327 71.6758 391.952 71.2539Z" fill="#FFA51F"/>
<path d="M52.0469 112.281C48.0625 111.672 44.0898 111.215 40.1289 110.91C36.1914 110.582 32.1953 110.418 28.1406 110.418C23.6172 110.418 19.082 110.617 14.5352 111.016C10.0117 111.414 5.45313 112.059 0.859375 112.949C2.00781 112.059 3.15625 111.191 4.30469 110.348C5.47656 109.504 6.68359 108.707 7.92578 107.957C8.46484 104.77 8.86328 101.629 9.12109 98.5352C9.37891 95.4414 9.50781 92.3242 9.50781 89.1836C9.50781 84.5195 9.23828 79.9141 8.69922 75.3672C8.16016 70.7969 7.42188 66.25 6.48438 61.7266C6.97656 61.7734 7.48047 61.8086 7.99609 61.832C8.53516 61.832 9.0625 61.832 9.57812 61.832C12.5547 61.832 15.4727 61.6445 18.332 61.2695C21.1914 60.8711 24.0508 60.3086 26.9102 59.582C26.9102 66.3555 26.5703 73.1172 25.8906 79.8672C25.2344 86.5938 24.1328 93.3203 22.5859 100.047C26.9688 98.125 31.4688 96.4844 36.0859 95.125C40.7031 93.7656 45.4961 92.6758 50.4648 91.8555C50.1836 94.2227 50.043 96.543 50.043 98.8164C50.043 101.09 50.1953 103.352 50.5 105.602C50.8047 107.852 51.3203 110.078 52.0469 112.281ZM77.5492 70.0938C76.8695 74.0078 76.3656 77.9688 76.0375 81.9766C75.7094 85.9609 75.5453 89.9922 75.5453 94.0703C75.5453 97.1406 75.6273 100.188 75.7914 103.211C75.9789 106.234 76.2719 109.211 76.6703 112.141C75.8031 112.141 74.9242 112.105 74.0336 112.035C73.143 111.965 72.1586 111.93 71.0805 111.93C69.1586 111.93 67.1781 112.047 65.1391 112.281C63.1 112.516 60.9203 112.855 58.6 113.301C59.2562 109.996 59.7836 106.609 60.182 103.141C60.5805 99.6719 60.7797 96.1445 60.7797 92.5586C60.7797 89.5586 60.6273 86.5703 60.3227 83.5938C60.018 80.5938 59.5375 77.6055 58.8812 74.6289C60.4281 74.4648 61.9281 74.2539 63.3812 73.9961C64.8344 73.7148 66.3109 73.3867 67.8109 73.0117C69.3109 72.6367 70.8578 72.2148 72.4516 71.7461C74.0453 71.2539 75.7445 70.7031 77.5492 70.0938ZM137.048 104.652C137.001 106.223 136.626 107.629 135.923 108.871C135.243 110.09 134.294 111.168 133.075 112.105C131.88 113.043 130.473 113.84 128.856 114.496C127.239 115.176 125.481 115.715 123.583 116.113C121.684 116.535 119.692 116.84 117.606 117.027C115.52 117.238 113.411 117.344 111.278 117.344C109.614 117.344 107.962 117.285 106.321 117.168C104.68 117.074 103.075 116.922 101.505 116.711C99.9344 116.5 98.4344 116.242 97.0047 115.938C95.575 115.656 94.2391 115.328 92.9969 114.953L93.5594 113.934C92.8328 114.168 92.0945 114.391 91.3445 114.602C90.5945 114.812 89.8445 115.047 89.0945 115.305C90.3602 111.836 91.45 108.367 92.3641 104.898C93.2781 101.43 93.993 97.9141 94.5086 94.3516C92.9852 93.4844 91.6258 92.5703 90.4305 91.6094C89.2352 90.6484 88.2391 89.7227 87.4422 88.832C88.6375 89.1602 89.8562 89.4648 91.0984 89.7461C92.3406 90.0273 93.618 90.2969 94.9305 90.5547C95.0008 89.4297 95.0594 88.3281 95.1062 87.25C95.1766 86.1484 95.2117 85.0352 95.2117 83.9102V83.3477C93.8992 83.7695 92.6219 84.2148 91.3797 84.6836C90.1375 85.1523 88.9187 85.6445 87.7234 86.1602C88.075 84.9648 88.3445 83.8281 88.532 82.75C88.7195 81.6719 88.8133 80.6172 88.8133 79.5859C88.8133 77.9688 88.6023 76.4102 88.1805 74.9102C87.7586 73.3867 87.1492 71.9688 86.3523 70.6562C88.8602 70.3047 91.1219 70.0117 93.1375 69.7773C95.1766 69.543 97.0633 69.3555 98.7977 69.2148C100.532 69.0742 102.161 68.9805 103.684 68.9336C105.208 68.8867 106.731 68.8633 108.255 68.8633C109.544 68.8633 110.997 68.8984 112.614 68.9688C114.255 69.0156 115.954 69.1328 117.712 69.3203C119.47 69.4844 121.227 69.7539 122.985 70.1289C124.743 70.4805 126.395 70.9609 127.942 71.5703C129.512 72.1562 130.919 72.8945 132.161 73.7852C133.403 74.6758 134.387 75.7539 135.114 77.0195L137.997 75.4375C138.067 75.9297 138.114 76.4453 138.137 76.9844C138.184 77.5 138.208 77.9922 138.208 78.4609C138.208 79.9375 138.009 81.3789 137.61 82.7852C137.212 84.1914 136.649 85.5508 135.923 86.8633C135.196 88.1523 134.329 89.3828 133.321 90.5547C132.313 91.7266 131.2 92.8047 129.981 93.7891C131.153 94.3984 132.137 95.0781 132.934 95.8281C133.755 96.5781 134.423 97.3516 134.938 98.1484C135.477 98.9453 135.887 99.7305 136.169 100.504C136.45 101.254 136.649 101.934 136.766 102.543C136.907 103.152 136.989 103.656 137.012 104.055C137.036 104.43 137.048 104.629 137.048 104.652ZM113.282 99.7656C112.04 99.7656 110.821 99.6953 109.626 99.5547C109.626 100.539 109.637 101.5 109.661 102.438C109.684 103.352 109.72 104.277 109.766 105.215C110.704 105.52 111.583 105.719 112.403 105.812C113.223 105.906 113.997 105.953 114.723 105.953C115.731 105.953 116.786 105.836 117.887 105.602C119.012 105.367 120.032 104.992 120.946 104.477C121.884 103.938 122.645 103.234 123.231 102.367C123.841 101.5 124.145 100.434 124.145 99.168C124.145 98.6992 124.075 98.125 123.934 97.4453C122.27 98.1953 120.536 98.7695 118.731 99.168C116.95 99.5664 115.134 99.7656 113.282 99.7656ZM115.602 79.5859C114.641 79.5859 113.692 79.6211 112.755 79.6914C111.841 79.7617 110.891 79.8555 109.907 79.9727C109.837 81.8477 109.778 83.7227 109.731 85.5977C109.708 87.4492 109.673 89.2891 109.626 91.1172C112.134 90.6484 114.161 89.6641 115.708 88.1641C117.255 86.6641 118.227 84.4375 118.626 81.4844L121.649 81.0273C120.759 80.5586 119.809 80.207 118.802 79.9727C117.817 79.7148 116.751 79.5859 115.602 79.5859Z" fill="#787AE7"/>
</svg>
