<svg width="277" height="126" viewBox="0 0 277 126" fill="none" xmlns="http://www.w3.org/2000/svg">
<path d="M37.375 15.7812C37.3333 16.1979 37.1562 16.5521 36.8438 16.8438C36.5312 17.1146 36.1667 17.25 35.75 17.25C35.25 17.25 34.8438 17.0729 34.5312 16.7188C34.2396 16.3438 34.0938 15.9583 34.0938 15.5625V15.4375L35.1875 4.1875C32.3542 4.47917 29.5208 4.71875 26.6875 4.90625C23.875 5.09375 21.0521 5.21875 18.2188 5.28125L17.9688 25.25C19.6771 25.25 21.2917 25.1667 22.8125 25C24.3333 24.8125 25.8125 24.5938 27.25 24.3438C27.3333 24.3021 27.4375 24.2812 27.5625 24.2812C27.9583 24.2812 28.3021 24.4062 28.5938 24.6562C28.9062 24.9062 29.0938 25.2292 29.1562 25.625C29.1562 26.1667 29.0312 26.6042 28.7812 26.9375C28.5312 27.2708 28.2083 27.4688 27.8125 27.5312C25.9167 27.8854 24.1771 28.1354 22.5938 28.2812C21.0104 28.4271 19.4479 28.5 17.9062 28.5L17.7812 43.3438C18.6771 43.3854 19.6146 43.4271 20.5938 43.4688C21.5729 43.5104 22.5938 43.5833 23.6562 43.6875C24.1354 43.7292 24.5 43.9375 24.75 44.3125C25 44.6667 25.125 45.0521 25.125 45.4688C25.0833 45.8854 24.9062 46.2396 24.5938 46.5312C24.3021 46.8021 23.9479 46.9375 23.5312 46.9375H23.4062C21.8021 46.8125 20.3125 46.7188 18.9375 46.6562C17.5833 46.5938 16.2604 46.5625 14.9688 46.5625C13.9688 46.5625 12.9688 46.5833 11.9688 46.625C10.9896 46.6667 9.97917 46.7292 8.9375 46.8125C7.91667 46.8958 6.85417 47 5.75 47.125C4.64583 47.25 3.48958 47.3958 2.28125 47.5625H2.09375C1.61458 47.5625 1.21875 47.3958 0.90625 47.0625C0.59375 46.75 0.4375 46.3646 0.4375 45.9062C0.4375 45.5312 0.5625 45.1875 0.8125 44.875C1.08333 44.5625 1.42708 44.375 1.84375 44.3125C3.55208 44.0625 5.19792 43.875 6.78125 43.75L7.21875 5.28125C6.44792 5.23958 5.67708 5.20833 4.90625 5.1875C4.13542 5.16667 3.34375 5.13542 2.53125 5.09375C2.11458 5.05208 1.75 4.875 1.4375 4.5625C1.14583 4.25 1 3.86458 1 3.40625C1 2.96875 1.16667 2.59375 1.5 2.28125C1.83333 1.96875 2.22917 1.8125 2.6875 1.8125H2.75C4.47917 1.91667 6.20833 1.98958 7.9375 2.03125C9.6875 2.05208 11.4271 2.0625 13.1562 2.0625C15.6562 2.0625 17.9792 2.03125 20.125 1.96875C22.2708 1.90625 24.2917 1.8125 26.1875 1.6875C28.1042 1.5625 29.9375 1.41667 31.6875 1.25C33.4375 1.0625 35.1562 0.864583 36.8438 0.65625H37.0312C37.5104 0.65625 37.8958 0.822917 38.1875 1.15625C38.4792 1.46875 38.625 1.83333 38.625 2.25V2.46875L37.375 15.7812ZM65.6688 47.7812C65.6271 47.7812 65.575 47.7708 65.5125 47.75C65.4708 47.7292 65.4188 47.7188 65.3563 47.7188C63.6688 47.3854 62.0646 47.1458 60.5438 47C59.0229 46.8333 57.5125 46.75 56.0125 46.75C54.4917 46.75 52.9813 46.8333 51.4813 47C49.9813 47.1458 48.3979 47.3854 46.7313 47.7188C46.6688 47.7188 46.6167 47.7292 46.575 47.75C46.5333 47.7708 46.4813 47.7812 46.4188 47.7812C45.9396 47.7812 45.5438 47.6042 45.2313 47.25C44.9396 46.8958 44.7938 46.5104 44.7938 46.0938C44.7938 45.7188 44.9083 45.375 45.1375 45.0625C45.3875 44.75 45.7 44.5625 46.075 44.5C46.8042 44.3333 47.5333 44.2083 48.2625 44.125C49.0125 44.0208 49.7417 43.9167 50.45 43.8125V19.875C49.1375 19.8125 48.0333 19.7292 47.1375 19.625C46.2417 19.5208 45.7417 19.4688 45.6375 19.4688C45.2208 19.4062 44.8771 19.2188 44.6063 18.9062C44.3563 18.5938 44.2313 18.2292 44.2313 17.8125C44.2313 17.2917 44.4188 16.8958 44.7938 16.625C45.1688 16.3542 45.5333 16.2188 45.8875 16.2188H46.075C46.0958 16.2188 46.3354 16.25 46.7938 16.3125C47.2521 16.3542 47.8458 16.4062 48.575 16.4688C49.325 16.5312 50.1688 16.5938 51.1063 16.6562C52.0438 16.6979 53.0125 16.7188 54.0125 16.7188C55.0125 16.7188 55.9917 16.6875 56.95 16.625C57.9083 16.5417 58.7833 16.4062 59.575 16.2188H59.9188C60.3979 16.2188 60.7938 16.3854 61.1063 16.7188C61.4188 17.0312 61.575 17.3958 61.575 17.8125L61.5125 43.8125C62.2417 43.9167 62.9708 44.0208 63.7 44.125C64.45 44.2083 65.2104 44.3333 65.9813 44.5C66.3771 44.5625 66.7 44.75 66.95 45.0625C67.2 45.375 67.325 45.7188 67.325 46.0938C67.325 46.5729 67.1479 46.9688 66.7938 47.2812C66.4396 47.6146 66.0646 47.7812 65.6688 47.7812ZM61.1375 6.6875C61.1375 7.45833 60.9917 8.1875 60.7 8.875C60.4083 9.54167 60.0021 10.125 59.4813 10.625C58.9813 11.125 58.3875 11.5208 57.7 11.8125C57.0333 12.1042 56.3146 12.25 55.5438 12.25C54.7729 12.25 54.0438 12.1042 53.3563 11.8125C52.6896 11.5208 52.1063 11.125 51.6063 10.625C51.1063 10.125 50.7104 9.54167 50.4188 8.875C50.1271 8.1875 49.9813 7.45833 49.9813 6.6875C49.9813 5.91667 50.1271 5.19792 50.4188 4.53125C50.7104 3.84375 51.1063 3.25 51.6063 2.75C52.1063 2.25 52.6896 1.85417 53.3563 1.5625C54.0438 1.27083 54.7729 1.125 55.5438 1.125C56.3146 1.125 57.0333 1.27083 57.7 1.5625C58.3875 1.85417 58.9813 2.25 59.4813 2.75C60.0021 3.25 60.4083 3.84375 60.7 4.53125C60.9917 5.19792 61.1375 5.91667 61.1375 6.6875ZM91.1188 47.4375H90.8063C89.9729 47.2917 89.2125 47.1667 88.525 47.0625C87.8375 46.9583 87.1813 46.8854 86.5563 46.8438C85.9313 46.7812 85.2958 46.7396 84.65 46.7188C84.025 46.6979 83.3479 46.6875 82.6188 46.6875C81.1396 46.6875 79.7021 46.75 78.3063 46.875C76.9104 46.9792 75.3792 47.1875 73.7125 47.5H73.4C72.8792 47.5 72.4833 47.3333 72.2125 47C71.9417 46.6875 71.8063 46.3021 71.8063 45.8438C71.8063 45.4688 71.9208 45.1354 72.15 44.8438C72.3792 44.5521 72.6917 44.3542 73.0875 44.25C73.8583 44.125 74.5563 44.0312 75.1813 43.9688C75.8063 43.8854 76.4729 43.8125 77.1813 43.75V5.59375C75.8688 5.48958 74.9208 5.39583 74.3375 5.3125C73.775 5.20833 73.4417 5.15625 73.3375 5.15625C72.9208 5.09375 72.5771 4.90625 72.3063 4.59375C72.0563 4.28125 71.9313 3.92708 71.9313 3.53125C71.9313 2.98958 72.1188 2.58333 72.4938 2.3125C72.8688 2.02083 73.2333 1.875 73.5875 1.875H73.775C73.7958 1.875 73.9833 1.90625 74.3375 1.96875C74.6917 2.01042 75.1708 2.07292 75.775 2.15625C76.4 2.21875 77.1292 2.28125 77.9625 2.34375C78.8167 2.38542 79.7438 2.40625 80.7438 2.40625C81.7438 2.40625 82.7229 2.375 83.6813 2.3125C84.6396 2.22917 85.5146 2.10417 86.3063 1.9375C86.3688 1.89583 86.4833 1.875 86.65 1.875C87.1292 1.875 87.525 2.05208 87.8375 2.40625C88.15 2.73958 88.3063 3.11458 88.3063 3.53125L88.2438 43.75C88.5979 43.7917 88.8896 43.8333 89.1188 43.875C89.3688 43.8958 89.5979 43.9271 89.8063 43.9688C90.0354 43.9896 90.2646 44.0208 90.4938 44.0625C90.7438 44.0833 91.0563 44.125 91.4313 44.1875C91.8271 44.2917 92.15 44.4896 92.4 44.7812C92.65 45.0729 92.775 45.4062 92.775 45.7812C92.775 46.2604 92.5979 46.6562 92.2438 46.9688C91.9104 47.2812 91.5354 47.4375 91.1188 47.4375ZM154.069 46.875H153.85C153.079 46.7708 152.308 46.6979 151.537 46.6562C150.767 46.5938 149.965 46.5625 149.131 46.5625C148.131 46.5625 147.058 46.6146 145.912 46.7188C144.767 46.8021 143.475 46.9583 142.037 47.1875H141.756C141.319 47.1875 140.944 47.0312 140.631 46.7188C140.319 46.3854 140.162 46.0104 140.162 45.5938C140.162 45.1771 140.287 44.8125 140.537 44.5C140.808 44.1875 141.131 44 141.506 43.9375C142.444 43.8125 143.329 43.6979 144.162 43.5938C144.996 43.4896 145.777 43.4062 146.506 43.3438C146.652 42.6146 146.819 41.6354 147.006 40.4062C147.215 39.1771 147.402 37.875 147.569 36.5C147.735 35.1042 147.871 33.7083 147.975 32.3125C148.1 30.8958 148.162 29.6458 148.162 28.5625C148.162 27.5417 148.1 26.5 147.975 25.4375C147.85 24.3542 147.6 23.375 147.225 22.5C146.85 21.625 146.308 20.9167 145.6 20.375C144.912 19.8125 143.996 19.5312 142.85 19.5312C141.392 19.5312 140.131 19.8333 139.069 20.4375C138.027 21.0417 137.131 21.7917 136.381 22.6875C135.631 23.5625 135.017 24.5104 134.537 25.5312C134.079 26.5521 133.715 27.4792 133.444 28.3125C133.444 29.9792 133.381 31.5625 133.256 33.0625C133.194 33.9792 133.11 34.9271 133.006 35.9062C132.902 36.8646 132.798 37.8021 132.694 38.7188C132.59 39.6146 132.485 40.4688 132.381 41.2812C132.277 42.0729 132.183 42.7604 132.1 43.3438C132.746 43.3438 133.402 43.375 134.069 43.4375C134.756 43.4792 135.465 43.5312 136.194 43.5938C136.652 43.6354 137.006 43.8125 137.256 44.125C137.527 44.4375 137.662 44.8021 137.662 45.2188C137.662 45.7188 137.496 46.125 137.162 46.4375C136.829 46.7292 136.465 46.875 136.069 46.875H135.881C135.006 46.7708 134.183 46.7083 133.412 46.6875C132.642 46.6458 131.881 46.625 131.131 46.625C130.048 46.625 128.954 46.6771 127.85 46.7812C126.767 46.8646 125.579 47 124.287 47.1875H124.037C123.579 47.1875 123.194 47.0312 122.881 46.7188C122.59 46.3854 122.444 46.0104 122.444 45.5938C122.444 45.1771 122.569 44.8125 122.819 44.5C123.09 44.1875 123.433 44 123.85 43.9375C124.746 43.8125 125.59 43.7083 126.381 43.625C127.173 43.5208 127.975 43.4479 128.787 43.4062C128.871 42.8854 128.965 42.2292 129.069 41.4375C129.173 40.625 129.277 39.7396 129.381 38.7812C129.506 37.8229 129.621 36.8333 129.725 35.8125C129.85 34.7917 129.944 33.8021 130.006 32.8438C130.048 32.1354 130.09 31.3958 130.131 30.625C130.173 29.8333 130.194 29.0208 130.194 28.1875C130.194 27.1875 130.142 26.1771 130.037 25.1562C129.933 24.1354 129.704 23.2083 129.35 22.375C128.996 21.5417 128.485 20.8646 127.819 20.3438C127.173 19.8021 126.298 19.5312 125.194 19.5312C124.152 19.5312 123.194 19.7708 122.319 20.25C121.444 20.7083 120.652 21.3021 119.944 22.0312C119.235 22.7396 118.61 23.5312 118.069 24.4062C117.548 25.2604 117.1 26.0938 116.725 26.9062C116.35 27.6979 116.048 28.4062 115.819 29.0312C115.61 29.6354 115.475 30.0521 115.412 30.2812L115.35 43.9375C115.725 43.9792 116.09 44.0208 116.444 44.0625C116.798 44.1042 117.152 44.1458 117.506 44.1875C117.923 44.25 118.267 44.4375 118.537 44.75C118.829 45.0625 118.975 45.4271 118.975 45.8438C118.975 46.3021 118.798 46.6875 118.444 47C118.11 47.2917 117.735 47.4375 117.319 47.4375H117.131C115.881 47.2708 114.6 47.1354 113.287 47.0312C111.996 46.9271 110.631 46.875 109.194 46.875C107.902 46.875 106.537 46.9271 105.1 47.0312C103.683 47.1562 102.162 47.3854 100.537 47.7188C100.475 47.7188 100.423 47.7292 100.381 47.75C100.34 47.7708 100.287 47.7812 100.225 47.7812C99.7458 47.7812 99.3604 47.6042 99.0687 47.25C98.7771 46.8958 98.6312 46.5104 98.6312 46.0938C98.6312 45.7188 98.7458 45.375 98.975 45.0625C99.2042 44.75 99.5167 44.5625 99.9125 44.5C100.683 44.3333 101.423 44.2083 102.131 44.125C102.84 44.0208 103.548 43.9375 104.256 43.875V20.5C102.944 20.4375 101.84 20.3646 100.944 20.2812C100.069 20.1771 99.5792 20.125 99.475 20.125C99.0583 20.0625 98.7146 19.875 98.4437 19.5625C98.1937 19.25 98.0687 18.8854 98.0687 18.4688C98.0687 17.9479 98.2562 17.5521 98.6312 17.2812C99.0062 16.9896 99.3708 16.8438 99.725 16.8438H99.9125C99.9333 16.8438 100.173 16.875 100.631 16.9375C101.09 16.9792 101.683 17.0417 102.412 17.125C103.162 17.1875 104.006 17.25 104.944 17.3125C105.881 17.3542 106.85 17.375 107.85 17.375C108.85 17.375 109.829 17.3438 110.787 17.2812C111.746 17.1979 112.621 17.0521 113.412 16.8438H113.725C114.204 16.8438 114.6 17.0104 114.912 17.3438C115.246 17.6771 115.412 18.0521 115.412 18.4688V22.5625C115.912 21.75 116.485 20.9688 117.131 20.2188C117.798 19.4688 118.537 18.8021 119.35 18.2188C120.162 17.6354 121.058 17.1667 122.037 16.8125C123.017 16.4583 124.069 16.2812 125.194 16.2812C126.194 16.2812 127.1 16.4271 127.912 16.7188C128.725 17.0104 129.444 17.4271 130.069 17.9688C130.715 18.4896 131.267 19.1146 131.725 19.8438C132.183 20.5729 132.548 21.3646 132.819 22.2188C133.277 21.5104 133.819 20.8021 134.444 20.0938C135.09 19.3854 135.819 18.75 136.631 18.1875C137.465 17.625 138.392 17.1667 139.412 16.8125C140.454 16.4583 141.6 16.2812 142.85 16.2812C144.6 16.2812 146.027 16.6562 147.131 17.4062C148.256 18.1562 149.142 19.1146 149.787 20.2812C150.433 21.4479 150.881 22.7604 151.131 24.2188C151.381 25.6771 151.506 27.1042 151.506 28.5C151.506 29.6042 151.444 30.8438 151.319 32.2188C151.215 33.5729 151.079 34.9271 150.912 36.2812C150.746 37.6354 150.569 38.9375 150.381 40.1875C150.215 41.4167 150.058 42.4479 149.912 43.2812C150.683 43.2812 151.423 43.3125 152.131 43.375C152.84 43.4167 153.548 43.4896 154.256 43.5938C154.673 43.6354 155.017 43.8125 155.287 44.125C155.579 44.4375 155.725 44.8021 155.725 45.2188C155.725 45.6562 155.548 46.0417 155.194 46.375C154.86 46.7083 154.485 46.875 154.069 46.875ZM143.819 91.5C143.048 91.5 142.319 91.3542 141.631 91.0625C140.965 90.7708 140.381 90.375 139.881 89.875C139.381 89.375 138.985 88.7917 138.694 88.125C138.402 87.4375 138.256 86.7083 138.256 85.9375C138.256 85.1667 138.402 84.4479 138.694 83.7812C138.985 83.0938 139.381 82.5 139.881 82C140.381 81.4792 140.965 81.0729 141.631 80.7812C142.319 80.4688 143.048 80.3125 143.819 80.3125C143.923 80.3125 144.017 80.3229 144.1 80.3438C144.204 80.3646 144.308 80.375 144.412 80.375C143.871 79.9583 143.235 79.6458 142.506 79.4375C141.798 79.2083 140.975 79.0938 140.037 79.0938C138.85 79.0938 137.819 79.3438 136.944 79.8438C136.069 80.3229 135.319 80.9375 134.694 81.6875C134.09 82.4167 133.6 83.2188 133.225 84.0938C132.85 84.9479 132.548 85.7604 132.319 86.5312C132.11 87.2812 131.965 87.9271 131.881 88.4688C131.819 89.0104 131.787 89.3229 131.787 89.4062L131.725 103.281C132.454 103.344 133.183 103.438 133.912 103.562C134.662 103.688 135.423 103.812 136.194 103.938C136.59 104.042 136.912 104.25 137.162 104.562C137.412 104.854 137.537 105.198 137.537 105.594C137.537 106.052 137.36 106.438 137.006 106.75C136.652 107.042 136.277 107.188 135.881 107.188H135.569C133.881 106.875 132.277 106.635 130.756 106.469C129.235 106.302 127.725 106.219 126.225 106.219C124.725 106.219 123.225 106.302 121.725 106.469C120.225 106.635 118.631 106.875 116.944 107.188H116.631C116.152 107.188 115.767 107.031 115.475 106.719C115.183 106.385 115.037 106.01 115.037 105.594C115.037 105.198 115.152 104.854 115.381 104.562C115.61 104.25 115.923 104.042 116.319 103.938C117.048 103.812 117.777 103.688 118.506 103.562C119.235 103.438 119.954 103.344 120.662 103.281V80C119.35 79.9375 118.246 79.8542 117.35 79.75C116.454 79.6458 115.954 79.5729 115.85 79.5312C115.433 79.4896 115.09 79.3229 114.819 79.0312C114.569 78.7188 114.444 78.3542 114.444 77.9375C114.444 77.4167 114.621 77.0104 114.975 76.7188C115.35 76.4271 115.725 76.2812 116.1 76.2812H116.319C116.34 76.3021 116.579 76.3438 117.037 76.4062C117.496 76.4479 118.09 76.5 118.819 76.5625C119.548 76.625 120.381 76.6771 121.319 76.7188C122.277 76.7604 123.246 76.7812 124.225 76.7812C125.225 76.7812 126.204 76.75 127.162 76.6875C128.121 76.625 129.006 76.5104 129.819 76.3438C129.86 76.3021 129.965 76.2812 130.131 76.2812C130.61 76.2812 131.006 76.4583 131.319 76.8125C131.631 77.1458 131.787 77.5208 131.787 77.9375V80.1875C132.683 78.9375 133.808 77.9062 135.162 77.0938C136.537 76.2604 138.162 75.8438 140.037 75.8438C141.454 75.8854 142.746 76.1354 143.912 76.5938C145.079 77.0312 146.079 77.6458 146.912 78.4375C147.767 79.2083 148.423 80.1458 148.881 81.25C149.36 82.3333 149.6 83.5521 149.6 84.9062C149.6 85.7604 149.465 86.5833 149.194 87.375C148.923 88.1667 148.537 88.875 148.037 89.5C147.537 90.1042 146.923 90.5938 146.194 90.9688C145.485 91.3229 144.694 91.5 143.819 91.5ZM177.8 96.0625C177.758 95.7083 177.727 95.3438 177.706 94.9688C177.685 94.5938 177.675 94.2083 177.675 93.8125H176.519C175.685 93.8125 174.696 93.875 173.55 94C172.425 94.125 171.258 94.3229 170.05 94.5938C168.842 94.8646 167.644 95.2292 166.456 95.6875C165.269 96.125 164.206 96.6667 163.269 97.3125C162.331 97.9375 161.571 98.6771 160.988 99.5312C160.425 100.385 160.144 101.365 160.144 102.469C160.144 103.052 160.279 103.552 160.55 103.969C160.842 104.385 161.196 104.729 161.613 105C162.05 105.25 162.529 105.438 163.05 105.562C163.571 105.667 164.071 105.719 164.55 105.719C166.029 105.719 167.425 105.438 168.738 104.875C170.071 104.292 171.3 103.542 172.425 102.625C173.55 101.688 174.56 100.646 175.456 99.5C176.352 98.3542 177.133 97.2083 177.8 96.0625ZM192.769 106.875H192.644C192.29 106.833 191.925 106.812 191.55 106.812C191.175 106.812 190.81 106.812 190.456 106.812C188.498 106.812 186.613 106.938 184.8 107.188C183.008 107.438 181.206 107.823 179.394 108.344C179.331 108.344 179.269 108.354 179.206 108.375C179.144 108.396 179.06 108.406 178.956 108.406C178.477 108.406 178.081 108.219 177.769 107.844C177.477 107.49 177.331 107.125 177.331 106.75V106.5C177.331 106.458 177.383 106.042 177.488 105.25C177.592 104.438 177.696 103.312 177.8 101.875C176.904 102.875 175.946 103.812 174.925 104.688C173.925 105.542 172.863 106.292 171.738 106.938C170.633 107.562 169.488 108.052 168.3 108.406C167.113 108.781 165.883 108.969 164.613 108.969C163.613 108.969 162.644 108.812 161.706 108.5C160.769 108.208 159.935 107.781 159.206 107.219C158.498 106.656 157.925 105.979 157.488 105.188C157.071 104.375 156.863 103.469 156.863 102.469C156.863 100.906 157.196 99.5312 157.863 98.3438C158.55 97.1562 159.446 96.125 160.55 95.25C161.654 94.3542 162.904 93.6146 164.3 93.0312C165.717 92.4271 167.154 91.9479 168.613 91.5938C170.071 91.2188 171.488 90.9583 172.863 90.8125C174.238 90.6458 175.456 90.5625 176.519 90.5625H177.269C177.269 89.2917 177.04 88.0521 176.581 86.8438C176.144 85.6354 175.519 84.5625 174.706 83.625C173.915 82.6875 172.967 81.9375 171.863 81.375C170.758 80.7917 169.54 80.5 168.206 80.5C167.227 80.5 166.269 80.7812 165.331 81.3438C164.394 81.8854 163.56 82.5833 162.831 83.4375C162.102 84.2917 161.508 85.25 161.05 86.3125C160.613 87.375 160.394 88.4062 160.394 89.4062C160.394 89.8229 160.217 90.1771 159.863 90.4688C159.529 90.7396 159.154 90.875 158.738 90.875C158.279 90.875 157.883 90.7083 157.55 90.375C157.217 90.0208 157.05 89.6354 157.05 89.2188C157.05 88.2188 157.227 87.1771 157.581 86.0938C157.935 84.9896 158.446 83.9167 159.113 82.875C159.8 81.8125 160.623 80.8125 161.581 79.875C162.56 78.9375 163.665 78.1146 164.894 77.4062C166.144 76.6771 167.508 76.1042 168.988 75.6875C170.467 75.2708 172.04 75.0625 173.706 75.0625C176.04 75.0625 178.029 75.4271 179.675 76.1562C181.342 76.8854 182.727 77.875 183.831 79.125C184.956 80.375 185.842 81.8229 186.488 83.4688C187.133 85.1146 187.623 86.8542 187.956 88.6875C188.29 90.5208 188.498 92.3854 188.581 94.2812C188.685 96.1771 188.738 97.9896 188.738 99.7188C188.738 100.594 188.727 101.344 188.706 101.969C188.685 102.594 188.675 103.115 188.675 103.531C188.988 103.531 189.3 103.521 189.613 103.5C189.946 103.479 190.269 103.469 190.581 103.469C190.935 103.469 191.3 103.479 191.675 103.5C192.071 103.521 192.456 103.531 192.831 103.531C193.29 103.573 193.654 103.75 193.925 104.062C194.217 104.375 194.363 104.76 194.363 105.219C194.363 105.656 194.206 106.042 193.894 106.375C193.602 106.708 193.227 106.875 192.769 106.875ZM227.344 91.5C226.573 91.5 225.844 91.3542 225.156 91.0625C224.49 90.7708 223.906 90.375 223.406 89.875C222.906 89.375 222.51 88.7917 222.219 88.125C221.927 87.4375 221.781 86.7083 221.781 85.9375C221.781 85.1667 221.927 84.4479 222.219 83.7812C222.51 83.0938 222.906 82.5 223.406 82C223.906 81.4792 224.49 81.0729 225.156 80.7812C225.844 80.4688 226.573 80.3125 227.344 80.3125C227.448 80.3125 227.542 80.3229 227.625 80.3438C227.729 80.3646 227.833 80.375 227.938 80.375C227.396 79.9583 226.76 79.6458 226.031 79.4375C225.323 79.2083 224.5 79.0938 223.562 79.0938C222.375 79.0938 221.344 79.3438 220.469 79.8438C219.594 80.3229 218.844 80.9375 218.219 81.6875C217.615 82.4167 217.125 83.2188 216.75 84.0938C216.375 84.9479 216.073 85.7604 215.844 86.5312C215.635 87.2812 215.49 87.9271 215.406 88.4688C215.344 89.0104 215.312 89.3229 215.312 89.4062L215.25 103.281C215.979 103.344 216.708 103.438 217.438 103.562C218.188 103.688 218.948 103.812 219.719 103.938C220.115 104.042 220.438 104.25 220.688 104.562C220.938 104.854 221.062 105.198 221.062 105.594C221.062 106.052 220.885 106.438 220.531 106.75C220.177 107.042 219.802 107.188 219.406 107.188H219.094C217.406 106.875 215.802 106.635 214.281 106.469C212.76 106.302 211.25 106.219 209.75 106.219C208.25 106.219 206.75 106.302 205.25 106.469C203.75 106.635 202.156 106.875 200.469 107.188H200.156C199.677 107.188 199.292 107.031 199 106.719C198.708 106.385 198.562 106.01 198.562 105.594C198.562 105.198 198.677 104.854 198.906 104.562C199.135 104.25 199.448 104.042 199.844 103.938C200.573 103.812 201.302 103.688 202.031 103.562C202.76 103.438 203.479 103.344 204.188 103.281V80C202.875 79.9375 201.771 79.8542 200.875 79.75C199.979 79.6458 199.479 79.5729 199.375 79.5312C198.958 79.4896 198.615 79.3229 198.344 79.0312C198.094 78.7188 197.969 78.3542 197.969 77.9375C197.969 77.4167 198.146 77.0104 198.5 76.7188C198.875 76.4271 199.25 76.2812 199.625 76.2812H199.844C199.865 76.3021 200.104 76.3438 200.562 76.4062C201.021 76.4479 201.615 76.5 202.344 76.5625C203.073 76.625 203.906 76.6771 204.844 76.7188C205.802 76.7604 206.771 76.7812 207.75 76.7812C208.75 76.7812 209.729 76.75 210.688 76.6875C211.646 76.625 212.531 76.5104 213.344 76.3438C213.385 76.3021 213.49 76.2812 213.656 76.2812C214.135 76.2812 214.531 76.4583 214.844 76.8125C215.156 77.1458 215.312 77.5208 215.312 77.9375V80.1875C216.208 78.9375 217.333 77.9062 218.688 77.0938C220.062 76.2604 221.688 75.8438 223.562 75.8438C224.979 75.8854 226.271 76.1354 227.438 76.5938C228.604 77.0312 229.604 77.6458 230.438 78.4375C231.292 79.2083 231.948 80.1458 232.406 81.25C232.885 82.3333 233.125 83.5521 233.125 84.9062C233.125 85.7604 232.99 86.5833 232.719 87.375C232.448 88.1667 232.062 88.875 231.562 89.5C231.062 90.1042 230.448 90.5938 229.719 90.9688C229.01 91.3229 228.219 91.5 227.344 91.5ZM276.419 75.5C276.419 75.9167 276.273 76.2812 275.981 76.5938C275.71 76.9062 275.367 77.0833 274.95 77.125C274.554 77.1875 274.158 77.2396 273.762 77.2812C273.387 77.3021 272.992 77.3333 272.575 77.375C272.429 77.9583 272.221 78.7812 271.95 79.8438C271.7 80.8854 271.398 82.0833 271.044 83.4375C270.69 84.7917 270.304 86.2604 269.887 87.8438C269.492 89.4271 269.075 91.0417 268.637 92.6875C268.2 94.3333 267.752 95.9688 267.294 97.5938C266.835 99.2188 266.387 100.76 265.95 102.219C265.533 103.656 265.127 104.969 264.731 106.156C264.356 107.323 264.012 108.292 263.7 109.062C262.846 111.104 261.825 113.094 260.637 115.031C259.471 116.99 258.117 118.729 256.575 120.25C255.054 121.771 253.346 122.99 251.45 123.906C249.554 124.844 247.471 125.312 245.2 125.312C243.783 125.312 242.419 125.115 241.106 124.719C239.794 124.344 238.637 123.771 237.637 123C236.637 122.229 235.835 121.281 235.231 120.156C234.627 119.052 234.325 117.76 234.325 116.281C234.325 115.344 234.46 114.406 234.731 113.469C234.981 112.552 235.367 111.729 235.887 111C236.387 110.292 237.012 109.708 237.762 109.25C238.512 108.812 239.387 108.594 240.387 108.594C241.158 108.594 241.877 108.74 242.544 109.031C243.231 109.323 243.825 109.719 244.325 110.219C244.825 110.719 245.221 111.302 245.512 111.969C245.804 112.656 245.95 113.385 245.95 114.156C245.95 114.927 245.804 115.646 245.512 116.312C245.221 117 244.825 117.594 244.325 118.094C243.825 118.615 243.231 119.021 242.544 119.312C241.877 119.604 241.158 119.75 240.387 119.75C240.033 119.75 239.7 119.719 239.387 119.656C239.075 119.594 238.773 119.51 238.481 119.406C238.96 120.01 239.512 120.49 240.137 120.844C240.762 121.219 241.44 121.406 242.169 121.406C243.085 121.406 243.96 121.125 244.794 120.562C245.627 120.021 246.408 119.312 247.137 118.438C247.887 117.562 248.575 116.583 249.2 115.5C249.825 114.417 250.387 113.333 250.887 112.25C251.408 111.167 251.856 110.146 252.231 109.188C252.606 108.229 252.908 107.438 253.137 106.812C253.304 106.354 253.46 105.875 253.606 105.375C253.773 104.854 253.95 104.312 254.137 103.75C251.846 100.625 250.012 97.7083 248.637 95C247.262 92.2917 246.19 89.8438 245.419 87.6562C244.669 85.4688 244.158 83.5729 243.887 81.9688C243.637 80.3438 243.492 79.0625 243.45 78.125C242.658 78.125 241.856 78.1146 241.044 78.0938C240.252 78.0521 239.46 77.9792 238.669 77.875C238.252 77.8333 237.898 77.6667 237.606 77.375C237.335 77.0625 237.2 76.6979 237.2 76.2812C237.2 75.8229 237.367 75.4375 237.7 75.125C238.054 74.7917 238.44 74.625 238.856 74.625H239.044C239.773 74.7292 240.512 74.8021 241.262 74.8438C242.033 74.8646 242.815 74.875 243.606 74.875C244.815 74.875 246.033 74.8333 247.262 74.75C248.512 74.6458 249.783 74.4896 251.075 74.2812C251.158 74.2396 251.242 74.2188 251.325 74.2188C251.804 74.2188 252.2 74.3958 252.512 74.75C252.846 75.1042 253.012 75.4896 253.012 75.9062C253.012 76.2812 252.877 76.625 252.606 76.9375C252.356 77.25 252.023 77.4375 251.606 77.5C250.752 77.625 249.919 77.7396 249.106 77.8438C248.315 77.9271 247.523 78 246.731 78.0625C246.752 78.8125 246.867 79.8646 247.075 81.2188C247.304 82.5729 247.721 84.1771 248.325 86.0312C248.95 87.8854 249.815 89.9688 250.919 92.2812C252.044 94.5938 253.523 97.0938 255.356 99.7812C255.94 97.7812 256.523 95.6875 257.106 93.5C257.71 91.2917 258.273 89.1667 258.794 87.125C259.335 85.0833 259.815 83.2083 260.231 81.5C260.669 79.7917 261.012 78.4167 261.262 77.375C260.846 77.3333 260.408 77.3021 259.95 77.2812C259.512 77.2396 259.075 77.1875 258.637 77.125C258.221 77.0833 257.867 76.9062 257.575 76.5938C257.304 76.2812 257.169 75.9167 257.169 75.5C257.169 75 257.346 74.6042 257.7 74.3125C258.054 74 258.429 73.8438 258.825 73.8438H259.012C260.304 74.0104 261.585 74.125 262.856 74.1875C264.148 74.25 265.45 74.2812 266.762 74.2812C268.054 74.2812 269.346 74.25 270.637 74.1875C271.95 74.125 273.262 74.0104 274.575 73.8438H274.762C275.242 73.8438 275.637 74.0208 275.95 74.375C276.262 74.7083 276.419 75.0833 276.419 75.5Z" fill="#FFA51F"/>
<path d="M36.2188 106.094C36.1562 106.51 35.9688 106.833 35.6562 107.062C35.3438 107.312 34.9896 107.438 34.5938 107.438H34.4062C33.5521 107.354 32.5312 107.281 31.3438 107.219C30.1562 107.156 28.8542 107.104 27.4375 107.062C26.0417 107.021 24.5521 106.99 22.9688 106.969C21.4062 106.948 19.8229 106.938 18.2188 106.938C16.6146 106.938 15.0312 106.948 13.4688 106.969C11.9062 106.99 10.4271 107.021 9.03125 107.062C7.65625 107.104 6.375 107.156 5.1875 107.219C4.02083 107.281 3.03125 107.354 2.21875 107.438H2.09375C1.67708 107.438 1.3125 107.302 1 107.031C0.6875 106.76 0.5 106.365 0.4375 105.844C0.4375 105.427 0.572917 105.062 0.84375 104.75C1.13542 104.438 1.48958 104.25 1.90625 104.188C2.51042 104.125 3.19792 104.073 3.96875 104.031C4.76042 103.99 5.625 103.938 6.5625 103.875L7.28125 64.375C5.48958 64.25 3.67708 64.0625 1.84375 63.8125C1.42708 63.75 1.08333 63.5625 0.8125 63.25C0.5625 62.9375 0.4375 62.5833 0.4375 62.1875C0.5 61.6458 0.6875 61.2396 1 60.9688C1.3125 60.6771 1.67708 60.5312 2.09375 60.5312H2.28125C4.46875 60.8646 6.63542 61.1042 8.78125 61.25C10.9479 61.375 13.0938 61.4375 15.2188 61.4375C16.5104 61.4375 17.7812 61.4167 19.0312 61.375C20.2812 61.3333 21.5312 61.25 22.7812 61.125H22.9062C23.3854 61.125 23.7812 61.2917 24.0938 61.625C24.4062 61.9375 24.5625 62.3229 24.5625 62.7812C24.5625 63.1979 24.4167 63.5625 24.125 63.875C23.8333 64.1667 23.4688 64.3333 23.0312 64.375C22.2604 64.4375 21.4792 64.5 20.6875 64.5625C19.9167 64.6042 19.1354 64.6458 18.3438 64.6875L17.3125 103.688H18.2188C19.6354 103.688 21.0417 103.698 22.4375 103.719C23.8333 103.74 25.1771 103.771 26.4688 103.812C27.7812 103.833 29.0104 103.865 30.1562 103.906C31.3021 103.948 32.3333 104 33.25 104.062L35.5625 91C35.625 90.5833 35.8125 90.25 36.125 90C36.4375 89.7292 36.7812 89.5938 37.1562 89.5938C37.6146 89.5938 38.0104 89.7708 38.3438 90.125C38.6771 90.4583 38.8438 90.8333 38.8438 91.25C38.8438 91.3125 38.8333 91.3646 38.8125 91.4062C38.7917 91.4479 38.7812 91.5 38.7812 91.5625L36.2188 106.094ZM65.7938 107.781C65.7521 107.781 65.7 107.771 65.6375 107.75C65.5958 107.729 65.5438 107.719 65.4813 107.719C63.7938 107.385 62.1896 107.146 60.6688 107C59.1479 106.833 57.6375 106.75 56.1375 106.75C54.6167 106.75 53.1063 106.833 51.6063 107C50.1063 107.146 48.5229 107.385 46.8563 107.719C46.7938 107.719 46.7417 107.729 46.7 107.75C46.6583 107.771 46.6063 107.781 46.5438 107.781C46.0646 107.781 45.6688 107.604 45.3563 107.25C45.0646 106.896 44.9188 106.51 44.9188 106.094C44.9188 105.719 45.0333 105.375 45.2625 105.062C45.5125 104.75 45.825 104.562 46.2 104.5C46.9292 104.333 47.6583 104.208 48.3875 104.125C49.1375 104.021 49.8667 103.917 50.575 103.812V79.875C49.2625 79.8125 48.1583 79.7292 47.2625 79.625C46.3667 79.5208 45.8667 79.4688 45.7625 79.4688C45.3458 79.4062 45.0021 79.2188 44.7313 78.9062C44.4813 78.5938 44.3563 78.2292 44.3563 77.8125C44.3563 77.2917 44.5438 76.8958 44.9188 76.625C45.2938 76.3542 45.6583 76.2188 46.0125 76.2188H46.2C46.2208 76.2188 46.4604 76.25 46.9188 76.3125C47.3771 76.3542 47.9708 76.4062 48.7 76.4688C49.45 76.5312 50.2938 76.5938 51.2313 76.6562C52.1688 76.6979 53.1375 76.7188 54.1375 76.7188C55.1375 76.7188 56.1167 76.6875 57.075 76.625C58.0333 76.5417 58.9083 76.4062 59.7 76.2188H60.0438C60.5229 76.2188 60.9188 76.3854 61.2313 76.7188C61.5438 77.0312 61.7 77.3958 61.7 77.8125L61.6375 103.812C62.3667 103.917 63.0958 104.021 63.825 104.125C64.575 104.208 65.3354 104.333 66.1063 104.5C66.5021 104.562 66.825 104.75 67.075 105.062C67.325 105.375 67.45 105.719 67.45 106.094C67.45 106.573 67.2729 106.969 66.9188 107.281C66.5646 107.615 66.1896 107.781 65.7938 107.781ZM61.2625 66.6875C61.2625 67.4583 61.1167 68.1875 60.825 68.875C60.5333 69.5417 60.1271 70.125 59.6063 70.625C59.1063 71.125 58.5125 71.5208 57.825 71.8125C57.1583 72.1042 56.4396 72.25 55.6688 72.25C54.8979 72.25 54.1688 72.1042 53.4813 71.8125C52.8146 71.5208 52.2313 71.125 51.7313 70.625C51.2313 70.125 50.8354 69.5417 50.5438 68.875C50.2521 68.1875 50.1063 67.4583 50.1063 66.6875C50.1063 65.9167 50.2521 65.1979 50.5438 64.5312C50.8354 63.8438 51.2313 63.25 51.7313 62.75C52.2313 62.25 52.8146 61.8542 53.4813 61.5625C54.1688 61.2708 54.8979 61.125 55.6688 61.125C56.4396 61.125 57.1583 61.2708 57.825 61.5625C58.5125 61.8542 59.1063 62.25 59.6063 62.75C60.1271 63.25 60.5333 63.8438 60.825 64.5312C61.1167 65.1979 61.2625 65.9167 61.2625 66.6875ZM103.775 90.2188C103.775 88.5938 103.629 87.0729 103.338 85.6562C103.046 84.2188 102.567 82.9688 101.9 81.9062C101.254 80.8438 100.4 80.0104 99.3375 79.4062C98.275 78.7812 96.9625 78.4688 95.4 78.4688C94.525 78.4688 93.7021 78.6146 92.9313 78.9062C92.1604 79.1979 91.4417 79.5833 90.775 80.0625C90.1292 80.5417 89.5354 81.0729 88.9938 81.6562C88.4729 82.2396 88.025 82.8229 87.65 83.4062C87.275 83.9688 86.9729 84.5104 86.7438 85.0312C86.5354 85.5312 86.4104 85.9375 86.3688 86.25C86.3688 87.5417 86.3792 88.8021 86.4 90.0312C86.4417 91.2604 86.4833 92.4583 86.525 93.625C86.5667 95.1667 86.7438 96.5938 87.0563 97.9062C87.3896 99.1979 87.8688 100.312 88.4938 101.25C89.1188 102.188 89.9 102.927 90.8375 103.469C91.7958 103.99 92.9313 104.25 94.2438 104.25C95.9313 104.25 97.3688 103.833 98.5563 103C99.7646 102.167 100.754 101.083 101.525 99.75C102.296 98.4167 102.858 96.9167 103.213 95.25C103.588 93.5833 103.775 91.9062 103.775 90.2188ZM107.056 90.2188C107.056 92.8854 106.671 95.3854 105.9 97.7188C105.129 100.031 104.004 102.052 102.525 103.781C101.046 105.51 99.2333 106.875 97.0875 107.875C94.9417 108.875 92.4833 109.375 89.7125 109.375C87.7125 109.375 85.8479 109.021 84.1188 108.312C82.4104 107.625 80.9104 106.656 79.6188 105.406C78.3479 104.156 77.3271 102.677 76.5563 100.969C75.8063 99.2604 75.3896 97.3854 75.3063 95.3438C75.2646 94.0521 75.2333 92.4062 75.2125 90.4062C75.1917 88.3854 75.1813 86.2188 75.1813 83.9062C75.1813 82.1771 75.1813 80.4271 75.1813 78.6562C75.2021 76.8854 75.2125 75.2083 75.2125 73.625C75.2333 72.0208 75.2438 70.5625 75.2438 69.25C75.2646 67.9375 75.2854 66.8646 75.3063 66.0312C73.5771 66.0312 72.1708 65.9583 71.0875 65.8125C70.0042 65.6667 69.4104 65.5729 69.3063 65.5312C68.9104 65.4688 68.5875 65.2812 68.3375 64.9688C68.0875 64.6562 67.9625 64.3125 67.9625 63.9375C67.9625 63.6667 68.025 63.4271 68.15 63.2188C68.2542 63.0104 68.3896 62.8333 68.5563 62.6875C68.7229 62.5417 68.9 62.4375 69.0875 62.375C69.275 62.2917 69.4521 62.25 69.6188 62.25C69.6604 62.25 69.7021 62.25 69.7438 62.25C69.7854 62.25 69.8271 62.2708 69.8688 62.3125C69.8896 62.3125 70.0458 62.3333 70.3375 62.375C70.6292 62.4167 71.025 62.4688 71.525 62.5312C72.025 62.5729 72.6083 62.6146 73.275 62.6562C73.9625 62.6979 74.7021 62.7188 75.4938 62.7188C76.7854 62.7188 78.2021 62.6458 79.7438 62.5C81.2854 62.3333 82.8375 62.0208 84.4 61.5625C84.5667 61.4792 84.7125 61.4375 84.8375 61.4375C85.3167 61.4375 85.7125 61.6146 86.025 61.9688C86.3583 62.3021 86.525 62.6771 86.525 63.0938V63.1562C86.525 63.1771 86.5146 63.6458 86.4938 64.5625C86.4729 65.4583 86.4521 66.6667 86.4313 68.1875C86.4313 69.6875 86.4208 71.4271 86.4 73.4062C86.3792 75.3854 86.3688 77.4479 86.3688 79.5938C86.8271 78.9479 87.3688 78.3542 87.9938 77.8125C88.6396 77.2708 89.3479 76.8021 90.1188 76.4062C90.9104 76.0104 91.7438 75.7083 92.6188 75.5C93.4938 75.2917 94.4 75.1875 95.3375 75.1875C97.3792 75.1875 99.1396 75.5833 100.619 76.375C102.098 77.1458 103.306 78.2083 104.244 79.5625C105.202 80.9167 105.91 82.5104 106.369 84.3438C106.827 86.1771 107.056 88.1354 107.056 90.2188Z" fill="#787AE7"/>
</svg>
